<?xml version="1.0" standalone="no"?>
<!DOCTYPE svg PUBLIC "-//W3C//DTD SVG 20010904//EN"
 "http://www.w3.org/TR/2001/REC-SVG-20010904/DTD/svg10.dtd">
<svg version="1.0" xmlns="http://www.w3.org/2000/svg"
 width="1280.000000pt" height="640.000000pt" viewBox="0 0 1280.000000 640.000000"
 preserveAspectRatio="xMidYMid meet">
<metadata>
Created by potrace 1.15, written by Peter Selinger 2001-2017
</metadata>
<g transform="translate(0.000000,640.000000) scale(0.100000,-0.100000)"
fill="#000000" stroke="none">
<path d="M3735 6189 c-93 -3 -210 -8 -260 -11 -49 -3 -121 -7 -160 -8 l-70 -2
60 -18 c75 -23 61 -24 -44 -5 -80 16 -131 11 -170 -14 -17 -11 -10 -15 69 -37
44 -13 94 -19 154 -18 63 1 83 -2 71 -9 -13 -7 -14 -11 -5 -17 20 -12 -103
-21 -212 -15 -68 3 -96 2 -83 -4 11 -5 41 -10 67 -10 52 -1 80 -9 73 -21 -14
-23 30 -31 162 -30 150 1 178 1 190 -1 31 -5 66 4 85 24 13 13 32 27 43 31 19
8 19 9 -5 15 -20 6 -13 10 40 20 36 8 74 22 85 32 12 10 43 19 75 22 30 3 78
10 105 16 45 11 110 22 235 40 44 7 43 7 -30 14 -112 10 -285 13 -475 6z
m-310 -60 c4 -6 5 -12 2 -15 -7 -7 -37 7 -37 17 0 13 27 11 35 -2z m115 1 c0
-5 -7 -7 -15 -4 -8 4 -15 8 -15 10 0 2 7 4 15 4 8 0 15 -4 15 -10z m-50 -30
c0 -5 -5 -10 -11 -10 -5 0 -7 5 -4 10 3 6 8 10 11 10 2 0 4 -4 4 -10z m-30
-39 c0 -5 -9 -7 -20 -4 -11 3 -20 7 -20 9 0 2 9 4 20 4 11 0 20 -4 20 -9z
m168 -42 c17 0 32 -4 32 -9 0 -4 -37 -8 -82 -7 -46 0 -118 0 -161 -1 -43 -1
-84 1 -90 5 -13 9 151 20 223 15 25 -1 60 -3 78 -3z"/>
<path d="M4816 6192 c-2 -4 4 -13 15 -20 11 -7 19 -8 19 -2 0 5 15 14 33 19
31 9 31 9 -15 10 -26 1 -49 -3 -52 -7z"/>
<path d="M4925 6190 c5 -8 156 -2 165 6 2 3 -35 4 -83 3 -47 -1 -84 -5 -82 -9z"/>
<path d="M5238 6193 c6 -2 18 -2 25 0 6 3 1 5 -13 5 -14 0 -19 -2 -12 -5z"/>
<path d="M5383 6193 c26 -2 67 -2 90 0 23 2 2 3 -48 3 -49 0 -68 -1 -42 -3z"/>
<path d="M4763 6183 c9 -2 23 -2 30 0 6 3 -1 5 -18 5 -16 0 -22 -2 -12 -5z"/>
<path d="M4638 6168 c5 -5 16 -8 23 -6 8 3 3 7 -10 11 -17 4 -21 3 -13 -5z"/>
<path d="M5270 6170 c-34 -7 -34 -7 -5 -8 17 0 41 4 55 8 33 11 0 11 -50 0z"/>
<path d="M4358 6163 c6 -2 18 -2 25 0 6 3 1 5 -13 5 -14 0 -19 -2 -12 -5z"/>
<path d="M5453 6163 c9 -2 25 -2 35 0 9 3 1 5 -18 5 -19 0 -27 -2 -17 -5z"/>
<path d="M5658 6163 c7 -3 16 -2 19 1 4 3 -2 6 -13 5 -11 0 -14 -3 -6 -6z"/>
<path d="M8258 6156 c-70 -12 -108 -30 -45 -22 20 3 37 1 37 -3 0 -5 30 -8 68
-6 37 1 84 3 105 4 50 1 48 21 -2 21 -22 0 -43 -4 -46 -10 -11 -18 -26 -10
-20 10 7 23 5 23 -97 6z"/>
<path d="M8478 6163 c6 -2 18 -2 25 0 6 3 1 5 -13 5 -14 0 -19 -2 -12 -5z"/>
<path d="M9430 6150 c-9 -6 -10 -10 -3 -10 6 0 15 5 18 10 8 12 4 12 -15 0z"/>
<path d="M5558 6143 c7 -3 16 -2 19 1 4 3 -2 6 -13 5 -11 0 -14 -3 -6 -6z"/>
<path d="M7960 6140 c-64 -5 -69 -7 -30 -10 72 -6 124 -7 138 -2 21 7 13 22
-10 20 -13 -1 -57 -4 -98 -8z"/>
<path d="M9048 6143 c6 -2 18 -2 25 0 6 3 1 5 -13 5 -14 0 -19 -2 -12 -5z"/>
<path d="M9495 6140 c-3 -5 -15 -10 -26 -10 -10 0 -19 -4 -19 -9 0 -9 56 -16
206 -27 67 -5 82 -4 87 9 4 11 -5 16 -41 20 -25 3 -48 10 -50 16 -5 14 -148
15 -157 1z"/>
<path d="M5695 6130 c-25 -11 1 -11 35 0 20 6 21 8 5 8 -11 0 -29 -3 -40 -8z"/>
<path d="M5766 6131 c-3 -4 6 -6 19 -3 14 2 25 6 25 8 0 8 -39 4 -44 -5z"/>
<path d="M7124 6131 c-2 -2 -38 -3 -80 -2 -46 1 -74 -2 -70 -7 4 -6 -10 -8
-36 -5 -29 4 -39 3 -34 -5 9 -15 1 -15 -25 -2 -13 8 -25 7 -40 -1 -16 -8 -20
-8 -14 1 5 8 -6 10 -39 8 -26 -2 -46 -7 -45 -12 0 -5 -5 -13 -13 -17 -10 -7
-10 -9 2 -10 44 -2 74 -9 94 -22 52 -35 119 -30 164 11 22 20 99 12 86 -9 -3
-5 22 -9 55 -9 34 0 61 4 61 10 0 6 -17 10 -38 10 -21 0 -42 4 -47 9 -6 5 -19
11 -30 14 -11 3 14 5 55 6 88 1 150 10 150 22 0 7 -148 17 -156 10z m-86 -28
c-10 -2 -26 -2 -35 0 -10 3 -2 5 17 5 19 0 27 -2 18 -5z m-161 -29 c-3 -3 -12
-4 -19 -1 -8 3 -5 6 6 6 11 1 17 -2 13 -5z"/>
<path d="M8140 6130 c-12 -8 -11 -10 8 -10 12 0 22 5 22 10 0 13 -11 13 -30 0z"/>
<path d="M2970 6122 c0 -4 9 -8 20 -9 11 -1 20 2 20 8 0 5 -9 9 -20 9 -11 0
-20 -4 -20 -8z"/>
<path d="M7448 6123 c6 -2 18 -2 25 0 6 3 1 5 -13 5 -14 0 -19 -2 -12 -5z"/>
<path d="M2786 6102 c-9 -15 23 -26 79 -27 28 -1 70 -5 95 -9 41 -8 44 -7 30
8 -9 9 -38 18 -65 21 -28 3 -69 8 -91 11 -24 4 -44 2 -48 -4z"/>
<path d="M9770 6089 l-35 -18 75 1 c41 0 89 3 105 7 l30 7 -40 8 c-74 15 -100
14 -135 -5z"/>
<path d="M2551 6081 c-46 -13 -36 -31 16 -31 43 1 83 17 83 34 0 8 -67 6 -99
-3z"/>
<path d="M3036 6081 c17 -16 77 -31 118 -30 l41 2 -35 7 c-19 4 -30 8 -25 10
14 3 -44 17 -79 19 -18 1 -26 -3 -20 -8z"/>
<path d="M5655 6060 c-3 -5 1 -10 9 -10 8 0 18 5 21 10 3 6 -1 10 -9 10 -8 0
-18 -4 -21 -10z"/>
<path d="M2370 6053 c-19 -2 -69 -11 -110 -20 -69 -16 -72 -18 -40 -23 35 -6
90 1 123 15 10 4 17 3 17 -4 0 -6 -9 -11 -20 -11 -11 0 -20 -4 -20 -9 0 -4 11
-6 25 -3 14 2 25 8 25 13 0 5 4 9 9 9 5 0 22 5 38 11 22 8 24 12 13 19 -8 6
-17 9 -20 8 -3 -1 -21 -3 -40 -5z"/>
<path d="M2775 6050 c3 -5 16 -10 28 -10 18 0 19 2 7 10 -20 13 -43 13 -35 0z"/>
<path d="M3278 6053 c6 -2 18 -2 25 0 6 3 1 5 -13 5 -14 0 -19 -2 -12 -5z"/>
<path d="M3960 6050 c-18 -12 -2 -12 25 0 13 6 15 9 5 9 -8 0 -22 -4 -30 -9z"/>
<path d="M4095 6050 c3 -5 8 -10 11 -10 2 0 4 5 4 10 0 6 -5 10 -11 10 -5 0
-7 -4 -4 -10z"/>
<path d="M9815 6053 c-11 -3 -24 -9 -30 -13 -15 -12 -89 -22 -180 -25 -76 -2
-232 -18 -302 -31 -34 -6 -46 -24 -16 -24 9 0 14 -3 11 -6 -4 -3 -53 -8 -110
-11 -56 -3 -105 -7 -107 -9 -10 -9 24 -34 45 -34 13 0 24 -5 24 -11 0 -7 -9
-9 -22 -5 -61 18 -152 28 -156 17 -2 -6 -13 -11 -25 -11 -18 0 -19 -2 -7 -10
12 -8 10 -10 -8 -10 -19 0 -22 4 -17 19 4 14 0 23 -14 30 -28 15 -38 14 -16
-2 20 -15 15 -21 -29 -31 l-29 -7 22 -16 c15 -10 19 -19 13 -25 -18 -18 -1
-38 32 -39 24 -1 26 -3 8 -6 -17 -3 -21 -9 -17 -23 4 -13 -5 -22 -40 -39 -24
-11 -55 -21 -67 -21 -17 0 -12 7 25 30 48 30 60 50 31 50 -12 0 -15 9 -12 35
1 21 -3 39 -10 44 -10 6 -10 10 2 21 19 15 12 30 -15 30 -10 0 -19 5 -19 10 0
6 -11 10 -25 10 -14 0 -25 -4 -25 -10 0 -5 -5 -10 -11 -10 -6 0 -24 -11 -41
-25 -16 -14 -36 -25 -44 -25 -8 0 -14 -4 -14 -10 0 -5 5 -10 12 -10 9 0 9 -3
0 -12 -18 -18 -14 -28 12 -28 24 0 51 -22 40 -33 -3 -3 -20 1 -37 8 -33 14
-119 31 -197 40 -25 2 -60 8 -79 11 -24 5 -32 3 -27 -5 4 -6 18 -11 30 -11 13
0 29 -6 35 -14 9 -11 7 -15 -11 -19 -12 -4 -25 -1 -29 4 -4 7 -16 8 -30 4 -13
-5 -39 -7 -58 -7 -18 1 -43 -3 -54 -10 -16 -8 -23 -7 -33 7 -10 14 -18 15 -46
7 -18 -6 -58 -16 -88 -22 -30 -7 -65 -18 -77 -26 -24 -15 -52 -18 -77 -8 -21
8 -10 24 17 24 17 1 19 2 7 9 -20 11 -108 22 -91 11 8 -4 11 -15 8 -23 -3 -8
-1 -19 5 -25 18 -18 0 -32 -26 -20 -32 14 -118 -17 -114 -41 3 -17 -3 -17 -74
-5 -25 4 -38 3 -38 -5 0 -10 13 -15 33 -12 4 0 7 -3 7 -9 0 -14 -33 -13 -67 2
-33 15 -43 27 -37 43 3 6 -5 17 -18 23 -19 10 -12 10 37 4 132 -16 212 -3 199
32 -9 24 -248 79 -334 77 -42 -1 -43 -1 -25 13 19 15 18 15 -15 17 -54 3 -58
4 -66 12 -4 4 -18 0 -31 -8 -14 -9 -23 -11 -23 -5 0 6 -4 8 -10 5 -5 -3 -10
-1 -10 5 0 7 -8 9 -21 5 -12 -4 -38 -9 -59 -11 -20 -2 -48 -7 -61 -12 -13 -5
-40 -9 -59 -7 -19 1 -42 -5 -51 -12 -9 -8 -20 -13 -25 -12 -5 1 -16 1 -24 0
-13 -1 -13 -2 0 -11 12 -8 9 -10 -12 -10 -14 0 -28 4 -30 9 -4 12 -48 -6 -48
-20 0 -6 7 -9 15 -5 8 3 15 3 15 -1 0 -9 -30 -31 -67 -49 -18 -9 -33 -23 -33
-30 0 -8 -8 -17 -17 -21 -10 -3 -33 -17 -50 -30 -18 -13 -39 -23 -45 -22 -7 1
-41 -10 -75 -26 l-63 -28 2 -48 c2 -31 7 -49 15 -49 7 0 10 -6 7 -14 -5 -14
23 -26 63 -26 22 0 86 29 91 43 5 10 32 -12 32 -26 0 -5 11 -25 25 -42 13 -18
21 -35 18 -39 -9 -9 18 -36 37 -36 10 0 23 6 29 14 7 8 27 17 45 20 19 4 37
13 40 22 4 10 2 13 -6 8 -8 -5 -9 -2 -5 10 4 10 7 24 7 31 0 7 12 16 26 19 15
4 33 13 41 21 12 13 10 18 -21 36 -20 12 -36 24 -36 29 0 16 41 59 63 66 52
15 87 37 87 54 0 18 26 30 66 30 20 0 21 3 12 40 -6 22 -15 40 -20 40 -5 0 -6
5 -2 11 3 6 19 9 35 5 22 -4 34 0 49 17 15 15 32 22 60 22 46 0 58 -9 40 -30
-10 -12 -8 -16 14 -26 24 -11 25 -14 11 -29 -14 -16 -14 -18 0 -24 11 -4 14
-12 10 -27 -4 -13 -1 -27 11 -40 13 -15 14 -19 3 -19 -8 -1 -2 -8 14 -16 15
-8 27 -18 27 -22 0 -4 -27 -22 -60 -40 -55 -31 -81 -52 -46 -39 8 3 20 -1 26
-9 10 -11 9 -14 -8 -14 -24 0 -42 -27 -42 -61 0 -18 -4 -20 -27 -15 -73 18
-83 19 -83 3 0 -25 -20 -30 -40 -12 -18 17 -21 17 -46 0 -21 -14 -25 -23 -22
-51 3 -23 0 -34 -9 -34 -7 0 -22 -5 -32 -12 -11 -6 -26 -8 -37 -3 -23 10 -47
8 -101 -11 -41 -13 -73 -11 -73 6 0 8 -33 1 -74 -16 -16 -6 -18 -4 -13 9 3 9
1 19 -5 23 -7 4 -8 3 -4 -4 4 -7 1 -12 -8 -12 -9 0 -16 5 -16 10 0 6 -15 10
-32 10 -18 0 -28 -4 -23 -8 19 -13 10 -37 -15 -40 -74 -8 -92 -15 -129 -52
-22 -22 -49 -40 -61 -40 -13 0 -24 -8 -27 -18 -6 -23 -63 -45 -97 -36 -22 5
-24 3 -19 -16 5 -19 2 -21 -23 -19 -51 4 -74 -1 -74 -15 0 -8 15 -17 33 -20
34 -6 79 -48 84 -76 1 -8 -2 -32 -6 -53 -10 -44 -3 -50 69 -61 25 -4 55 -9 68
-11 17 -2 22 1 18 11 -8 22 26 35 66 24 30 -9 42 -6 82 16 41 23 51 25 73 15
19 -9 24 -17 20 -32 -3 -12 -3 -18 0 -15 3 3 22 -7 42 -23 20 -15 52 -36 71
-45 46 -22 64 -37 78 -62 17 -31 -8 -48 -69 -47 -27 0 -49 -3 -49 -8 0 -11 80
-50 91 -43 4 2 5 12 2 20 -4 10 2 17 15 21 12 3 29 16 38 30 13 21 14 27 3 34
-11 7 -11 11 -1 21 10 10 17 10 32 0 16 -10 20 -10 20 1 0 8 -18 22 -40 32
-22 10 -37 22 -34 26 3 5 -4 9 -16 9 -23 0 -105 78 -113 109 -6 24 9 30 62 25
30 -3 43 0 47 10 9 23 34 27 57 11 12 -8 29 -15 39 -15 10 0 18 -5 18 -11 0
-6 -21 -9 -55 -6 -63 5 -68 -4 -28 -46 19 -19 22 -26 10 -22 -9 4 -17 5 -17 2
0 -3 25 -17 56 -31 54 -25 56 -28 51 -56 -5 -25 0 -36 31 -69 20 -22 38 -50
40 -63 1 -12 8 -26 15 -30 19 -12 40 -9 34 5 -5 14 17 39 27 30 3 -4 6 -1 6 6
0 7 5 9 10 6 17 -11 11 0 -20 35 -28 31 -44 68 -19 43 15 -15 39 -5 33 12 -4
9 5 13 33 12 37 -2 38 -3 35 -34 -2 -25 1 -33 12 -33 25 0 19 -20 -6 -21 -21
-1 -21 -2 -3 -6 31 -7 47 -33 32 -52 -10 -14 -10 -14 5 -3 11 9 18 10 23 2 3
-6 10 -8 15 -5 4 3 13 -2 20 -10 16 -19 29 -19 51 1 17 15 20 15 43 0 27 -17
71 -21 80 -7 3 5 19 11 35 13 28 4 29 3 24 -36 -7 -63 -43 -155 -66 -168 -14
-7 -30 -7 -59 3 -33 10 -44 10 -71 -3 -29 -14 -38 -14 -73 -2 -21 8 -51 14
-66 14 -15 0 -30 5 -33 10 -3 6 -17 10 -29 10 -13 0 -29 7 -36 15 -30 36 -115
4 -104 -39 3 -14 -1 -27 -11 -36 -13 -11 -22 -10 -54 8 -21 12 -49 22 -61 22
-13 0 -24 8 -27 19 -6 22 -50 41 -94 41 -16 0 -38 9 -49 20 -11 11 -22 20 -25
20 -3 0 -8 0 -12 0 -3 0 1 8 9 18 16 17 21 105 6 96 -3 -2 -10 1 -13 7 -4 5
-14 7 -24 4 -15 -7 -34 -9 -197 -18 -64 -4 -102 -15 -174 -51 -27 -14 -107
-10 -127 6 -16 13 -28 4 -42 -29 -6 -16 -28 -37 -49 -48 -41 -22 -66 -64 -65
-110 1 -36 -37 -80 -81 -95 -29 -9 -52 -37 -84 -99 -7 -15 -17 -33 -22 -41
-27 -42 -60 -111 -60 -124 0 -7 6 -16 14 -19 19 -7 16 -162 -4 -197 -8 -14
-13 -29 -11 -35 2 -5 7 -28 10 -50 4 -29 13 -43 31 -52 14 -7 21 -13 15 -13
-5 0 9 -19 32 -42 23 -24 44 -58 48 -76 4 -18 16 -37 28 -44 12 -6 48 -33 80
-59 32 -27 65 -49 72 -49 7 0 29 7 48 15 41 17 100 20 126 5 17 -9 59 5 123
40 10 6 27 10 38 10 20 0 25 15 21 66 -1 12 8 38 20 58 12 20 19 45 16 56 -9
33 12 90 36 99 24 9 57 3 57 -10 0 -9 15 -10 90 -9 74 1 119 5 126 13 14 13
23 7 40 -28 15 -33 15 -35 -5 -61 -12 -15 -21 -31 -21 -36 0 -6 -8 -22 -19
-36 -10 -15 -24 -44 -30 -64 -11 -32 -15 -36 -30 -26 -26 16 -43 6 -67 -38
l-20 -39 23 -25 c13 -13 23 -37 23 -52 0 -23 4 -28 25 -28 19 0 25 -5 25 -21
0 -18 -5 -21 -29 -17 -27 4 -30 1 -36 -29 -3 -18 -10 -33 -16 -33 -14 0 26
-71 62 -108 35 -37 93 -175 84 -202 -3 -10 2 -36 11 -59 16 -41 16 -42 -8 -79
-14 -20 -30 -58 -36 -84 -21 -83 -15 -120 31 -211 33 -63 46 -99 51 -149 8
-77 22 -125 46 -153 33 -38 84 -156 72 -164 -9 -5 -9 -13 1 -34 19 -40 45 -50
97 -37 25 6 63 13 85 14 90 6 125 18 175 63 27 24 59 61 71 81 12 20 30 44 40
52 20 17 39 81 33 107 -4 14 6 24 40 41 44 21 46 24 46 64 0 24 -5 60 -11 81
-10 37 -9 40 28 82 21 23 57 52 80 64 22 11 50 33 62 50 19 26 20 38 14 120
-6 89 -6 90 -27 76 -11 -8 -30 -15 -43 -15 -12 0 -24 -4 -27 -8 -3 -5 -25 -7
-49 -5 -52 5 -60 -6 -47 -61 4 -20 4 -36 -1 -36 -12 0 -27 64 -22 94 10 48 -4
71 -55 94 -27 12 -53 22 -58 22 -17 1 -54 94 -54 135 0 26 3 35 9 27 6 -11 13
-7 30 16 14 20 18 33 11 37 -8 5 -7 11 1 21 9 11 9 17 -1 29 -11 13 -8 15 14
15 19 0 26 5 26 18 0 24 40 43 64 30 10 -5 15 -16 12 -26 -4 -12 8 -25 42 -46
26 -16 66 -50 89 -75 l41 -46 17 39 c21 50 76 116 196 235 80 81 101 109 137
184 23 48 42 94 42 102 0 8 4 16 8 19 9 5 8 53 -1 62 -4 4 -13 2 -21 -5 -8 -7
-38 -16 -68 -22 -68 -13 -77 -15 -111 -24 -22 -6 -32 -3 -51 18 -16 18 -20 29
-13 36 12 12 -55 94 -86 106 -11 4 -16 13 -13 21 4 10 0 14 -10 12 -12 -2 -20
10 -30 41 -7 24 -24 54 -38 65 -18 15 -26 33 -28 61 -3 47 -22 91 -44 99 -9 3
-14 15 -12 28 1 13 -9 44 -24 71 -15 26 -30 57 -34 70 -3 12 -15 34 -25 49
-11 14 -19 32 -19 40 0 7 12 -6 26 -30 22 -36 28 -41 41 -30 17 14 33 -3 74
-80 13 -26 34 -56 47 -67 13 -12 26 -39 31 -68 6 -33 19 -59 40 -81 17 -17 31
-35 31 -40 0 -4 13 -26 28 -49 21 -30 31 -59 35 -103 10 -99 17 -107 71 -79
15 8 36 15 45 15 9 0 42 13 73 29 32 16 73 34 93 41 19 6 35 18 35 25 0 8 7
18 16 23 14 8 14 13 -2 51 -9 23 -15 43 -13 45 2 1 24 10 49 19 38 14 47 23
57 54 7 22 8 44 3 54 -10 18 -2 59 11 59 5 0 6 7 3 15 -4 8 -1 15 5 15 6 0 11
15 11 33 l-1 32 -37 -42 c-28 -31 -45 -42 -72 -44 -48 -4 -61 6 -53 41 6 32
-13 43 -23 15 -8 -19 -24 -9 -24 14 0 9 -14 33 -31 52 l-30 34 30 3 c28 3 31
7 31 38 0 34 -1 35 -32 32 -29 -3 -33 0 -43 33 -5 19 -27 52 -47 72 -42 42
-45 49 -23 71 23 22 22 24 -3 42 -25 18 -42 51 -49 102 -5 37 -2 38 33 15 24
-15 27 -15 54 0 36 22 40 21 40 -3 0 -32 30 -24 37 11 3 17 11 33 18 35 7 3
-5 23 -31 52 -24 26 -44 56 -44 67 0 12 -5 26 -11 32 -16 16 7 47 44 61 28 11
29 13 15 34 -8 12 -23 27 -33 32 -40 23 -45 32 -34 65 12 33 19 37 36 20 12
-12 37 -3 29 10 -3 4 12 17 32 28 41 23 113 23 141 0 15 -13 33 -13 111 -4 19
3 40 1 46 -4 11 -9 54 -10 87 -2 25 6 21 22 -8 29 -27 7 -34 24 -10 24 8 0 14
6 12 13 -1 6 6 11 16 11 9 -1 17 2 17 6 0 4 -8 11 -17 16 -13 5 5 12 57 21 41
8 98 18 125 24 125 25 142 24 136 -13 -1 -7 40 -13 62 -9 4 1 10 -5 13 -13 5
-13 41 -10 85 8 23 10 78 -26 112 -71 28 -38 47 -44 131 -43 16 0 43 -11 62
-25 18 -14 42 -25 53 -25 28 0 26 -14 -3 -34 -18 -11 -23 -21 -19 -37 6 -21 3
-22 -39 -17 -41 5 -47 3 -57 -19 -6 -13 -11 -31 -11 -39 0 -8 -5 -12 -10 -9
-6 4 -23 4 -39 0 -28 -6 -29 -8 -19 -42 12 -44 -7 -71 -38 -55 -29 15 -185 21
-190 7 -3 -6 -19 -9 -37 -7 -35 4 -120 -37 -137 -66 -5 -10 -10 -12 -10 -4 0
6 -11 12 -24 12 -18 0 -27 9 -40 39 -19 48 -37 59 -96 56 -33 -1 -51 4 -68 19
-17 15 -25 17 -34 8 -23 -23 -47 -14 -45 16 2 26 0 27 -37 24 -68 -6 -76 -14
-76 -87 0 -36 -3 -65 -6 -65 -3 0 -18 9 -32 21 -19 14 -28 17 -31 8 -2 -7 4
-18 14 -25 17 -12 17 -14 2 -20 -10 -3 -23 -4 -31 -1 -8 3 -16 -2 -19 -14 -3
-12 0 -19 10 -19 9 0 13 -6 9 -15 -3 -8 -1 -15 4 -15 6 0 10 -16 10 -35 0 -28
4 -35 20 -35 11 0 20 4 20 9 0 4 16 11 36 14 29 5 52 -1 105 -26 64 -30 69
-34 69 -64 0 -17 -4 -35 -10 -38 -21 -13 -6 -125 16 -125 18 0 18 -10 -1 -37
-14 -20 -13 -24 12 -55 51 -60 55 -74 27 -88 -29 -16 -35 -65 -6 -56 9 3 45 6
79 7 59 2 93 -12 93 -38 0 -15 58 -53 80 -53 12 0 18 -4 15 -10 -3 -5 -16 -10
-28 -10 -20 0 -19 -2 10 -32 29 -28 36 -31 60 -22 18 6 27 16 25 27 -2 9 2 17
8 17 9 0 15 -27 12 -60 -4 -36 23 -160 44 -207 13 -28 24 -60 24 -70 0 -10 6
-28 14 -39 8 -11 22 -43 31 -71 9 -29 22 -59 29 -68 13 -18 46 -11 46 11 0 8
9 14 20 14 14 0 18 5 13 16 -3 9 0 20 8 25 15 9 19 30 22 134 2 57 6 70 20 73
9 2 17 7 17 12 0 4 9 10 20 13 11 3 20 12 20 21 0 9 4 16 9 16 5 0 29 20 53
44 23 24 53 49 66 55 12 6 22 20 22 31 0 23 15 33 55 35 53 3 95 16 89 27 -4
6 -1 9 7 6 7 -2 17 -20 22 -39 l9 -34 11 25 c6 14 15 28 19 31 5 3 10 20 11
37 1 20 7 30 14 28 11 -5 43 61 43 89 0 16 38 41 56 37 7 -1 15 10 18 24 l7
27 20 -21 c23 -25 25 -69 4 -92 -9 -10 -18 -27 -20 -40 -3 -18 -1 -21 15 -17
13 3 21 -1 25 -14 4 -10 10 -19 15 -19 4 0 6 -9 3 -20 -3 -11 -1 -20 3 -20 5
0 18 -7 28 -15 19 -14 19 -15 1 -35 -10 -11 -13 -20 -7 -20 7 0 12 -7 12 -15
0 -8 7 -15 15 -15 12 0 14 -8 9 -42 -7 -43 -7 -43 14 -25 11 11 26 16 32 12 6
-4 18 -1 27 6 13 11 18 10 34 -10 11 -13 19 -31 19 -42 0 -10 5 -21 10 -24 6
-3 10 -19 10 -36 0 -27 -3 -29 -37 -29 -48 0 -75 -24 -63 -56 6 -16 6 -24 -1
-24 -6 0 -3 -7 5 -16 9 -8 16 -22 16 -30 0 -8 4 -13 9 -10 5 3 12 -1 15 -9 3
-8 11 -14 18 -13 8 2 14 -10 16 -29 2 -18 6 -33 10 -33 4 0 21 16 37 35 17 19
35 35 40 35 6 0 23 11 39 23 26 21 29 30 28 73 -1 66 -14 96 -56 135 -20 18
-36 38 -36 44 0 7 -7 18 -15 25 -24 20 -18 44 22 83 27 28 45 37 70 37 21 0
33 -5 32 -12 -5 -42 11 -51 26 -16 7 15 26 27 58 36 26 7 47 18 47 23 0 6 4 8
8 5 16 -10 80 14 113 42 59 50 88 80 82 85 -3 3 4 19 16 35 12 17 21 35 21 41
0 6 6 11 14 11 7 0 16 10 19 23 2 12 8 30 12 40 4 10 4 17 -1 16 -5 -1 -18 -1
-29 0 -19 2 -19 3 1 13 20 9 32 58 14 58 -4 0 -15 17 -26 38 -10 20 -28 45
-39 54 -20 18 -20 18 19 53 21 19 47 35 57 35 10 0 19 5 19 10 0 6 -8 10 -18
10 -10 0 -23 5 -30 12 -9 9 -16 8 -30 -5 -25 -23 -42 -21 -42 3 0 13 -7 20
-18 20 -10 0 -21 3 -25 6 -10 10 4 33 18 28 7 -3 19 1 26 8 37 34 82 59 96 54
14 -6 14 -9 -2 -26 -9 -10 -14 -24 -10 -29 3 -6 1 -11 -6 -11 -7 0 -10 -3 -6
-6 3 -4 22 4 42 16 27 17 44 21 70 16 32 -6 34 -9 24 -27 -13 -24 -5 -51 13
-44 22 8 44 -11 30 -27 -6 -8 -7 -19 -2 -28 4 -7 4 -24 -1 -38 -13 -34 -4 -42
39 -29 56 16 72 34 65 71 -7 39 -27 79 -47 95 -22 19 -20 28 11 43 15 7 33 23
39 36 24 49 79 85 105 69 26 -16 67 6 131 71 104 106 128 137 137 186 5 25 13
52 19 59 40 48 -46 133 -90 89 -21 -21 -30 -13 -23 19 5 22 4 29 -4 25 -6 -4
-9 -11 -6 -16 3 -4 -2 -13 -10 -20 -12 -10 -15 -10 -15 3 0 10 -11 17 -27 19
-27 3 -26 4 17 25 25 12 56 31 70 41 14 11 51 36 82 56 55 35 58 36 158 36 56
0 109 4 118 9 23 11 99 2 81 -11 -9 -5 9 -7 49 -5 34 2 65 7 69 10 3 4 -2 7
-12 7 -14 0 -15 3 -5 15 7 8 16 15 21 15 5 0 27 11 47 25 29 19 50 25 85 24
38 -2 45 -5 36 -15 -18 -22 15 -28 50 -10 16 9 37 16 46 16 9 0 14 4 10 9 -5
9 24 31 40 31 15 0 -28 -59 -47 -66 -13 -3 -52 -26 -88 -49 -36 -24 -78 -47
-92 -50 -15 -4 -26 -10 -25 -14 1 -3 -9 -17 -22 -30 -21 -21 -23 -29 -17 -80
4 -30 11 -60 16 -65 6 -6 10 -20 10 -33 0 -13 5 -23 10 -23 19 0 60 32 60 46
0 16 34 36 45 26 5 -4 5 1 2 10 -7 20 9 35 43 40 18 2 24 8 22 21 -4 23 15 47
33 41 9 -4 12 4 10 28 -2 24 -7 32 -19 30 -22 -4 -20 15 4 30 11 7 20 18 20
25 0 7 6 13 13 14 28 2 53 7 71 14 14 6 17 5 12 -3 -8 -14 6 -16 20 -3 17 16
79 22 98 8 15 -11 27 -8 81 19 75 36 164 58 218 55 21 -2 37 2 37 8 0 18 -34
51 -52 51 -10 0 -18 4 -18 10 0 5 15 9 33 8 36 -1 81 18 72 32 -10 16 12 20
25 5 7 -8 29 -15 49 -15 20 0 41 -4 47 -9 14 -12 94 -30 110 -24 8 3 14 11 14
18 0 7 16 16 35 19 65 12 37 36 -59 50 -31 5 -46 4 -42 -3 4 -5 2 -12 -3 -15
-5 -4 -12 3 -16 13 -7 23 -128 64 -259 87 -94 16 -246 19 -246 4 0 -5 5 -10
12 -10 9 0 9 -3 1 -11 -13 -13 -69 -3 -80 13 -4 7 0 9 10 5 9 -3 19 -1 23 5 5
8 -5 9 -32 4 -55 -9 -57 -9 -176 -8 -87 2 -108 5 -108 17 0 18 -35 23 -185 28
-89 2 -128 7 -150 20 -21 12 -71 19 -172 25 -154 10 -197 7 -189 -13 6 -16
-176 -27 -213 -13 -19 7 -29 4 -46 -12 -18 -17 -26 -19 -53 -9 -24 8 -32 17
-32 35 0 32 -27 42 -119 45 -52 3 -74 0 -80 -10 -7 -10 -26 -12 -82 -6 -41 4
-117 10 -169 13 -68 5 -94 11 -92 20 1 7 -9 12 -25 13 l-28 1 29 7 c16 3 31
12 33 18 7 21 -43 33 -133 33 -47 0 -83 4 -80 9 3 4 -5 6 -18 4 -13 -3 -27 0
-30 6 -7 11 -92 13 -131 4z m341 -99 l29 -16 -34 6 c-18 3 -43 6 -55 6 -17 0
-18 2 -6 10 21 14 33 12 66 -6z m-91 -14 c-3 -5 -25 -9 -48 -9 -40 1 -40 2
-12 9 44 11 67 11 60 0z m-2945 -150 c13 -9 13 -10 0 -10 -8 0 -22 5 -30 10
-13 9 -13 10 0 10 8 0 22 -5 30 -10z m1868 -3 c7 -8 7 -18 2 -27 -8 -13 -10
-12 -10 2 0 9 -8 22 -17 27 -16 9 -16 10 -2 11 9 0 21 -6 27 -13z m-1313 -757
c-3 -5 -13 -10 -20 -10 -8 0 -12 -6 -9 -13 8 -22 -22 -39 -62 -35 -72 6 -46
35 51 57 22 5 41 9 43 10 2 1 0 -3 -3 -9z m-202 -32 c9 0 17 -3 17 -9 0 -5 -8
-9 -17 -9 -17 -1 -17 -1 0 -14 9 -7 17 -18 17 -25 0 -14 6 -14 30 -1 35 19 84
18 122 -1 64 -32 128 -80 128 -94 0 -19 -35 -37 -79 -39 -38 -2 -141 22 -141
34 0 10 -91 -4 -117 -18 -34 -19 -90 -15 -113 8 -24 24 -25 43 -5 60 8 7 15
18 15 24 0 7 17 31 37 54 32 36 41 42 63 36 14 -4 33 -6 43 -6z m877 -49 c0
-11 -4 -18 -10 -14 -5 3 -7 12 -3 20 7 21 13 19 13 -6z m-1004 -157 c-3 -2
-19 -6 -36 -8 -32 -4 -43 12 -12 18 20 5 55 -2 48 -10z m191 -454 c-3 -8 -6
-5 -6 6 -1 11 2 17 5 13 3 -3 4 -12 1 -19z"/>
<path d="M4058 6043 c7 -3 16 -2 19 1 4 3 -2 6 -13 5 -11 0 -14 -3 -6 -6z"/>
<path d="M9610 6039 c0 -5 5 -7 10 -4 6 3 10 8 10 11 0 2 -4 4 -10 4 -5 0 -10
-5 -10 -11z"/>
<path d="M2460 6033 c-45 -16 -79 -36 -75 -43 3 -5 30 -8 59 -7 33 2 54 -2 53
-8 -2 -11 31 -11 177 2 64 5 101 12 104 21 2 8 -10 12 -41 12 -25 0 -49 6 -56
14 -6 7 -22 11 -36 8 -20 -3 -23 -7 -14 -18 9 -11 7 -14 -12 -14 -42 1 -135
26 -119 33 20 7 -19 8 -40 0z"/>
<path d="M3990 6030 c8 -5 20 -10 25 -10 6 0 3 5 -5 10 -8 5 -19 10 -25 10 -5
0 -3 -5 5 -10z"/>
<path d="M5636 6025 c4 -9 17 -14 33 -14 23 2 24 2 4 6 -13 2 -23 9 -23 14 0
5 -4 9 -10 9 -5 0 -7 -7 -4 -15z"/>
<path d="M8580 6030 c-19 -5 -69 -10 -110 -11 -41 -1 -99 -8 -128 -15 -29 -8
-60 -14 -67 -14 -8 0 -24 -9 -35 -20 -11 -11 -29 -20 -41 -20 -11 0 -17 -4
-14 -10 3 -5 -1 -10 -9 -10 -8 0 -21 -6 -28 -13 -7 -7 -22 -16 -32 -20 -24 -9
-10 -25 24 -29 14 -2 27 -6 30 -10 5 -6 107 -12 135 -8 6 1 -6 6 -25 13 -55
19 -49 39 23 75 35 18 72 32 83 32 11 0 24 4 30 9 7 7 229 41 268 41 3 0 6 5
6 10 0 12 -60 12 -110 0z"/>
<path d="M2817 6019 c6 -6 33 -13 60 -16 26 -2 57 -9 69 -14 11 -6 38 -9 60
-7 31 2 39 7 39 23 0 18 -8 20 -69 23 -44 2 -72 -1 -76 -9 -6 -8 -13 -8 -28 0
-28 15 -70 15 -55 0z"/>
<path d="M11023 6010 c-31 -13 -29 -26 5 -32 33 -6 197 -1 232 8 25 6 25 6 3
15 -20 7 -95 12 -133 7 -8 -1 -31 1 -50 5 -19 3 -45 2 -57 -3z"/>
<path d="M3105 6000 l-39 -5 27 -12 c32 -15 97 -17 97 -5 0 16 -45 28 -85 22z"/>
<path d="M10950 6000 c0 -5 5 -10 11 -10 5 0 7 5 4 10 -3 6 -8 10 -11 10 -2 0
-4 -4 -4 -10z"/>
<path d="M2815 5990 c-3 -5 1 -10 10 -10 9 0 13 5 10 10 -3 6 -8 10 -10 10 -2
0 -7 -4 -10 -10z"/>
<path d="M5625 5989 c11 -7 26 -19 34 -28 12 -15 13 -14 7 3 -5 14 -3 17 11
12 11 -5 14 -4 8 2 -5 5 -26 12 -45 16 -29 5 -32 4 -15 -5z"/>
<path d="M11315 5990 c8 -13 124 -22 143 -11 13 8 8 11 -28 12 -25 1 -62 3
-82 4 -21 1 -35 -1 -33 -5z"/>
<path d="M5748 5983 c7 -3 16 -2 19 1 4 3 -2 6 -13 5 -11 0 -14 -3 -6 -6z"/>
<path d="M4420 5974 c0 -11 28 -33 34 -27 6 6 10 -12 7 -29 0 -5 3 -8 9 -8 5
0 7 -8 3 -17 -6 -16 -4 -16 15 1 l21 18 -40 34 c-41 34 -49 39 -49 28z"/>
<path d="M2140 5960 c0 -5 5 -10 12 -10 6 0 -4 -12 -24 -27 l-34 -27 50 -17
c57 -20 109 -15 145 13 30 23 60 25 41 3 -10 -12 -10 -15 4 -15 9 0 16 -7 16
-15 0 -12 18 -15 98 -17 l97 -1 -77 -6 c-86 -8 -108 -18 -58 -27 24 -5 28 -9
17 -15 -8 -5 -53 -2 -103 7 -49 9 -106 13 -128 11 -21 -3 -47 0 -58 6 -15 10
-21 9 -28 -3 -8 -13 -15 -12 -48 7 -36 20 -40 21 -55 5 -12 -11 -20 -13 -28
-5 -7 7 -26 7 -57 1 -26 -5 -74 -11 -107 -14 -32 -2 -62 -9 -66 -15 -5 -8 -23
-7 -60 4 -46 13 -194 28 -419 43 -30 2 -93 8 -140 13 -56 7 -98 7 -122 0 -20
-5 -40 -9 -45 -8 -22 6 -111 -16 -130 -31 -13 -10 -43 -21 -68 -24 -45 -7 -73
-26 -38 -26 10 0 37 -9 58 -20 22 -11 50 -21 63 -22 37 -4 26 -28 -13 -28 -19
0 -35 5 -35 11 0 13 -70 3 -115 -16 -25 -11 -26 -14 -9 -14 12 -1 28 -8 35
-17 11 -13 29 -15 99 -12 75 3 86 2 87 -13 2 -17 -26 -27 -87 -32 -14 -1 -39
-14 -55 -30 l-30 -27 35 -30 c27 -24 43 -30 70 -28 29 3 35 0 38 -19 3 -23 9
-24 120 -23 46 0 40 -27 -13 -56 -22 -13 -46 -28 -53 -34 -7 -6 -17 -8 -22 -5
-5 3 -27 -3 -49 -15 -22 -11 -49 -20 -61 -20 -11 0 -20 -4 -20 -10 0 -5 4 -10
9 -10 8 0 60 16 91 27 8 4 19 5 24 4 5 -1 16 1 25 5 9 4 22 8 29 10 16 3 105
46 112 53 3 3 27 17 54 31 27 13 43 26 37 28 -15 5 -14 22 1 22 7 0 24 12 40
27 31 29 46 26 27 -6 -20 -30 -6 -34 58 -18 42 10 58 19 57 31 -2 20 27 21 84
1 23 -8 75 -17 115 -19 83 -6 175 -45 223 -95 34 -37 48 -40 39 -8 -4 15 -4
18 3 8 8 -11 11 -10 19 4 7 12 12 14 17 6 4 -6 0 -14 -8 -17 -9 -3 -16 -13
-16 -21 0 -8 4 -12 9 -9 5 3 11 -1 15 -9 3 -8 0 -15 -7 -15 -14 -1 22 -23 42
-27 8 -1 22 2 30 7 17 9 46 -14 36 -30 -8 -13 14 -42 26 -34 5 3 12 -2 15 -10
3 -9 12 -16 18 -16 7 0 18 -11 24 -25 7 -14 22 -30 34 -35 19 -8 18 -9 -9 -4
-51 9 -33 -16 37 -50 32 -17 57 -33 55 -37 -3 -3 3 -21 11 -39 13 -25 15 -44
9 -84 -16 -99 -12 -168 13 -216 12 -24 26 -47 30 -50 5 -3 16 -21 25 -41 9
-20 23 -42 32 -49 8 -7 15 -19 15 -26 0 -8 6 -14 14 -14 8 0 32 -10 54 -21 32
-17 45 -33 68 -87 16 -36 41 -77 56 -91 32 -28 36 -48 11 -53 -13 -3 -3 -14
35 -37 45 -28 53 -38 49 -58 -3 -18 2 -27 24 -39 16 -8 33 -24 40 -35 7 -13
14 -18 20 -12 13 13 1 43 -17 43 -8 0 -14 6 -14 13 0 20 -37 92 -54 107 -9 7
-16 18 -16 25 0 7 -7 18 -15 25 -8 7 -12 16 -9 21 3 5 -2 9 -11 9 -8 0 -20 12
-25 26 -16 41 -13 56 12 52 25 -3 51 -46 51 -84 0 -13 3 -22 7 -21 11 3 110
-90 103 -97 -3 -2 21 -31 52 -63 62 -63 87 -108 80 -143 -2 -13 -1 -29 3 -36
11 -19 75 -60 149 -95 38 -17 82 -38 99 -46 29 -15 69 -14 106 1 12 6 29 -4
60 -32 44 -41 157 -90 178 -77 16 10 12 22 -10 28 -28 7 -37 37 -16 52 13 10
14 14 4 18 -10 4 -11 7 0 18 6 7 12 28 12 46 0 18 5 33 10 33 6 0 10 11 10 24
0 30 10 57 19 52 3 -2 7 7 7 20 2 21 -2 24 -36 24 -59 0 -90 -15 -90 -44 0
-14 -7 -31 -15 -40 -8 -8 -15 -19 -15 -24 0 -6 -8 -8 -17 -6 -10 2 -31 1 -48
-4 -81 -23 -160 93 -142 208 5 30 9 73 8 95 -1 49 1 53 64 93 49 31 88 36 135
19 27 -10 80 -14 80 -6 0 4 -4 9 -10 11 -5 2 -6 9 -1 16 11 18 105 20 125 3 9
-7 24 -10 36 -6 29 9 72 -30 64 -59 -6 -26 49 -116 71 -116 27 0 28 46 1 121
-14 40 -26 81 -26 92 0 28 129 147 160 147 6 0 9 4 6 9 -3 5 0 11 7 14 15 6
21 57 7 57 -6 0 -10 11 -10 25 0 14 5 25 11 25 6 0 8 -9 4 -22 -6 -22 -6 -22
14 2 12 15 18 33 15 44 -4 12 -2 16 5 11 8 -4 16 5 24 24 8 22 18 31 33 31 13
0 30 7 39 16 9 9 27 17 41 17 13 -1 27 3 30 8 3 5 -2 9 -11 9 -12 0 -15 7 -13
27 3 28 38 54 93 67 16 4 32 11 35 15 3 4 21 11 40 15 l35 6 -29 -23 c-17 -14
-26 -29 -22 -35 10 -17 24 -15 54 7 15 10 40 21 55 25 65 16 135 56 97 56 -5
0 -10 8 -10 18 -1 14 -4 13 -23 -8 -13 -14 -29 -26 -37 -28 -24 -6 -59 8 -80
30 -16 17 -17 24 -7 36 10 13 9 15 -10 10 -13 -4 -25 -2 -28 2 -3 5 7 10 22
12 17 2 29 10 31 21 5 27 -73 23 -134 -8 -27 -14 -51 -25 -53 -25 -12 0 35 40
53 46 11 4 32 15 45 26 21 16 40 18 131 16 96 -1 110 1 138 20 16 12 41 22 54
22 61 1 75 61 20 89 -17 9 -31 21 -32 26 0 6 -6 10 -13 11 -42 3 -101 39 -105
63 -2 12 -8 21 -13 21 -5 0 -8 3 -7 8 2 4 -19 28 -47 54 l-50 48 -27 -29 c-37
-39 -57 -44 -102 -26 -34 14 -38 20 -34 45 4 26 1 29 -34 34 -21 3 -38 10 -38
14 0 14 -64 30 -127 31 -34 0 -68 2 -75 3 -15 3 -18 -50 -4 -69 5 -8 2 -23 -9
-39 -9 -14 -15 -26 -13 -27 28 -14 44 -27 55 -43 12 -18 11 -24 -7 -47 -11
-14 -34 -28 -50 -32 -37 -8 -44 -18 -30 -45 5 -11 14 -29 20 -40 6 -12 6 -21
0 -25 -6 -4 -8 -11 -5 -16 3 -5 -1 -6 -9 -3 -9 3 -16 1 -16 -5 0 -8 -5 -9 -17
-2 -29 16 -74 58 -72 67 1 5 1 24 0 42 -1 31 -3 32 -42 32 -44 0 -131 25 -166
48 -13 8 -47 15 -75 16 -46 1 -55 5 -70 28 -9 14 -27 28 -40 30 -18 2 -24 10
-26 34 -3 26 3 37 35 63 20 17 52 36 70 42 18 6 31 14 28 19 -5 8 28 20 58 20
21 0 69 34 61 43 -3 3 4 10 15 17 12 6 19 15 16 21 -9 14 16 11 49 -6 30 -16
61 -21 39 -7 -8 5 4 13 32 21 48 14 52 19 33 40 -10 11 -10 14 0 18 21 8 13
33 -10 34 -15 1 -10 4 12 8 19 4 38 3 41 -2 7 -10 59 2 59 14 0 16 25 10 39
-9 9 -12 22 -18 40 -15 23 3 24 2 6 -7 -18 -9 -17 -10 8 -7 40 6 33 -10 -8
-17 -47 -9 -48 -36 -1 -36 25 0 35 5 39 20 3 13 13 20 29 19 21 0 21 -1 4 -8
-14 -5 -16 -10 -7 -15 6 -4 18 -2 26 4 8 6 19 9 25 5 21 -13 9 -34 -26 -45
-32 -11 -34 -13 -17 -26 16 -12 10 -13 -47 -14 -69 0 -97 -10 -85 -30 5 -8 27
-10 76 -5 67 7 71 6 121 -26 29 -19 59 -33 66 -31 8 2 26 -1 41 -7 42 -15 101
-23 101 -12 0 5 -20 17 -45 27 -25 9 -44 19 -41 21 4 4 80 -17 119 -32 13 -6
16 -3 11 9 -3 9 -1 16 5 16 7 0 5 9 -5 25 -9 14 -24 25 -33 25 -25 0 -61 29
-55 45 5 11 11 12 32 2 15 -6 34 -16 42 -23 25 -19 60 -24 60 -8 0 8 9 14 20
14 11 0 20 5 20 10 0 6 7 10 15 10 8 0 15 5 15 10 0 6 -9 10 -20 10 -30 0 -32
1 -75 23 -22 11 -41 19 -43 18 -1 -2 -20 0 -42 4 -43 7 -55 25 -17 26 19 0 20
1 4 8 -10 4 -18 11 -18 16 0 6 -8 10 -19 9 -10 0 -17 3 -15 7 3 4 -15 10 -40
13 -24 4 -47 11 -50 17 -4 5 -24 9 -46 9 -21 0 -47 4 -57 9 -59 33 -114 50
-164 54 -32 2 -58 0 -58 -5 0 -5 -5 -6 -12 -2 -29 18 -166 -6 -153 -26 3 -5 0
-12 -6 -16 -6 -3 -15 0 -20 7 -6 10 1 19 24 32 l32 18 -63 -5 c-140 -10 -155
-95 -20 -111 41 -5 58 -12 60 -24 4 -21 -21 -51 -39 -44 -9 4 -11 0 -7 -11 4
-10 1 -16 -8 -16 -18 0 -58 29 -40 30 20 0 14 20 -10 29 -28 10 -48 4 -48 -16
0 -8 -5 -11 -11 -8 -6 4 -8 13 -5 20 5 15 -27 30 -43 20 -5 -3 -12 -1 -16 5
-3 5 0 10 7 10 7 0 4 6 -7 12 -11 6 -24 17 -28 25 -4 7 -18 13 -30 13 -21 1
-22 1 -3 15 11 8 29 15 40 15 12 0 34 8 49 19 l28 18 -53 6 c-89 11 -106 9
-119 -15 -9 -16 -9 -23 0 -26 20 -7 11 -32 -14 -38 -14 -3 -25 -9 -25 -13 0
-14 32 -51 43 -50 25 3 38 -1 32 -11 -3 -5 1 -10 10 -10 9 0 13 -4 10 -10 -3
-5 -18 -10 -32 -10 -18 0 -24 -4 -19 -15 3 -9 0 -15 -8 -15 -8 0 -16 9 -19 20
-3 14 0 20 10 20 14 0 14 2 0 18 -10 10 -23 19 -30 19 -6 0 -16 2 -22 3 -16 5
-65 -11 -65 -21 0 -5 12 -9 26 -9 23 0 24 -2 10 -15 -26 -26 -217 -14 -250 16
-8 7 69 4 117 -6 9 -2 17 3 17 10 0 8 -8 16 -17 18 -10 3 -3 5 15 6 48 2 31
18 -27 26 -38 5 -53 13 -71 37 -22 29 -22 32 -5 44 15 11 13 13 -19 19 -23 5
-42 3 -51 -5 -8 -6 -19 -9 -24 -6 -16 10 -24 -14 -10 -30 6 -8 9 -18 5 -22 -4
-4 -14 1 -21 11 -12 17 -81 44 -71 28 3 -4 -23 -7 -58 -7 -35 1 -62 4 -59 9 2
4 -6 7 -19 7 -13 0 -29 5 -35 11 -20 20 -303 38 -303 19z m1548 -43 c6 3 12 0
12 -5 0 -5 -17 -12 -38 -14 -33 -3 -38 0 -34 14 3 13 9 15 26 9 11 -5 27 -6
34 -4z m-311 -53 c-3 -3 -12 -4 -19 -1 -8 3 -5 6 6 6 11 1 17 -2 13 -5z m-627
-64 c0 -5 -10 -10 -22 -10 -25 0 -63 -20 -40 -20 7 0 10 -5 6 -11 -3 -6 -17
-8 -33 -4 -14 4 -66 7 -116 7 -58 0 -81 2 -65 7 25 8 24 10 -20 24 -8 3 0 6
18 6 17 1 32 -3 32 -9 0 -14 114 -11 175 5 66 17 65 17 65 5z m-460 -81 c-11
-8 -3 -9 33 -6 39 4 46 2 36 -9 -6 -8 -24 -14 -40 -14 -16 0 -29 -5 -29 -12 0
-9 -4 -8 -10 2 -8 12 -13 13 -30 3 -11 -7 -30 -13 -42 -13 -22 1 -22 1 -4 15
10 8 23 12 27 9 5 -3 9 0 9 7 0 8 -12 10 -37 6 -21 -4 -32 -3 -27 3 9 9 48 16
99 18 24 1 27 -1 15 -9z m1709 -5 c2 -2 -5 -4 -17 -4 -12 0 -25 0 -29 -1 -4 0
-9 5 -11 11 -3 7 5 9 25 4 15 -4 30 -8 32 -10z m-649 -30 c0 -2 -7 -4 -15 -4
-8 0 -15 4 -15 10 0 5 7 7 15 4 8 -4 15 -8 15 -10z m-825 -117 c11 0 31 3 44
7 15 5 21 5 17 -2 -10 -16 -102 -42 -148 -41 l-43 1 35 10 c44 12 48 17 30 29
-11 8 -7 9 15 4 17 -4 39 -7 50 -8z m-1252 -34 c-7 -2 -19 -2 -25 0 -7 3 -2 5
12 5 14 0 19 -2 13 -5z m515 -98 c-3 -3 -9 2 -12 12 -6 14 -5 15 5 6 7 -7 10
-15 7 -18z m1248 -163 c17 -11 46 -72 34 -72 -5 0 -10 5 -10 12 0 6 -3 8 -7 5
-9 -9 -53 33 -53 50 0 14 18 17 36 5z m1314 4 c0 -2 -7 -7 -16 -10 -8 -3 -12
-2 -9 4 6 10 25 14 25 6z m-1260 -101 c0 -8 -4 -15 -10 -15 -5 0 -7 7 -4 15 4
8 8 15 10 15 2 0 4 -7 4 -15z m-902 -67 c17 -17 15 -38 -4 -38 -8 0 -12 5 -9
11 4 6 -1 17 -11 24 -16 12 -16 14 -3 15 8 0 20 -5 27 -12z m1252 -33 c7 -8
18 -15 25 -15 12 0 25 -21 25 -38 0 -10 -92 -8 -108 1 -7 5 -10 13 -7 18 9 13
-2 11 -28 -6 -25 -16 -104 -18 -89 -3 21 21 109 57 138 58 17 0 37 -7 44 -15z
m545 -35 c-3 -5 -11 -10 -16 -10 -6 0 -7 5 -4 10 3 6 11 10 16 10 6 0 7 -4 4
-10z m-445 -49 c0 -5 11 -12 25 -15 32 -8 39 -25 26 -59 -11 -29 -31 -36 -31
-11 0 11 -6 14 -22 9 -19 -6 -21 -5 -10 6 19 20 14 38 -14 51 -23 11 -24 13
-7 19 25 10 33 10 33 0z m37 3 c-3 -3 -12 -4 -19 -1 -8 3 -5 6 6 6 11 1 17 -2
13 -5z m-97 -13 c0 -5 -11 -16 -25 -25 -20 -13 -25 -25 -25 -60 0 -49 -24 -82
-41 -55 -13 20 -11 45 6 85 8 19 10 32 5 29 -6 -3 -10 -1 -10 5 0 13 36 28 68
29 12 1 22 -3 22 -8z m152 -8 c21 -18 23 -33 6 -33 -14 0 -48 30 -48 42 0 13
22 9 42 -9z m135 -66 c-4 -10 -21 -14 -56 -14 -57 1 -55 16 3 21 20 2 39 6 43
10 10 9 16 -1 10 -17z m-95 -40 c-20 -23 -109 -50 -129 -38 -17 10 -17 10 3
11 11 0 29 6 39 14 11 8 24 12 30 10 6 -3 22 0 36 5 32 13 33 13 21 -2z"/>
<path d="M5606 5962 c-2 -4 4 -9 15 -9 11 -1 17 2 14 8 -7 11 -22 12 -29 1z"/>
<path d="M2985 5953 c-47 -4 -91 -23 -52 -23 9 0 17 -5 17 -11 0 -6 -9 -8 -22
-4 -25 8 -27 8 -48 6 -8 -1 18 -13 57 -26 112 -38 186 -14 133 43 -11 12 -24
21 -28 20 -4 -1 -29 -3 -57 -5z m85 -33 c0 -5 -2 -10 -4 -10 -3 0 -8 5 -11 10
-3 6 -1 10 4 10 6 0 11 -4 11 -10z"/>
<path d="M11119 5951 c11 -7 9 -10 -10 -14 -13 -2 8 -5 46 -5 75 -1 72 11 -5
22 -29 4 -40 3 -31 -3z"/>
<path d="M5503 5929 c-1 -10 3 -22 9 -25 7 -5 8 -2 3 6 -4 7 -2 15 5 20 9 5 8
8 -2 13 -9 3 -14 -2 -15 -14z"/>
<path d="M5537 5926 c-4 -10 0 -12 14 -9 10 3 16 9 13 14 -8 13 -21 11 -27 -5z"/>
<path d="M5440 5920 c20 -13 33 -13 25 0 -3 6 -14 10 -23 10 -15 0 -15 -2 -2
-10z"/>
<path d="M9035 5920 c-3 -5 -1 -10 4 -10 6 0 11 5 11 10 0 6 -2 10 -4 10 -3 0
-8 -4 -11 -10z"/>
<path d="M5595 5910 c-3 -5 -1 -10 4 -10 6 0 11 5 11 10 0 6 -2 10 -4 10 -3 0
-8 -4 -11 -10z"/>
<path d="M4545 5880 c3 -5 15 -10 26 -10 10 0 19 -5 19 -11 0 -6 7 -9 15 -5 8
3 15 1 15 -4 0 -6 5 -10 10 -10 18 0 11 16 -12 28 -36 17 -81 25 -73 12z"/>
<path d="M5448 5873 c6 -2 18 -2 25 0 6 3 1 5 -13 5 -14 0 -19 -2 -12 -5z"/>
<path d="M12428 5873 c-10 -2 -18 -9 -18 -15 0 -5 7 -7 16 -4 9 3 38 6 65 6
31 0 48 4 44 10 -6 10 -74 12 -107 3z"/>
<path d="M5440 5840 c-13 -8 -13 -10 2 -10 9 0 20 5 23 10 8 13 -5 13 -25 0z"/>
<path d="M4626 5815 c4 -8 7 -15 9 -15 1 0 8 7 15 15 10 13 9 15 -8 15 -15 0
-20 -5 -16 -15z"/>
<path d="M3680 5805 c-7 -8 -8 -15 -2 -15 5 0 15 7 22 15 7 8 8 15 2 15 -5 0
-15 -7 -22 -15z"/>
<path d="M7995 5800 c-4 -6 6 -10 24 -10 16 0 33 5 36 10 4 6 -6 10 -24 10
-16 0 -33 -4 -36 -10z"/>
<path d="M4546 5761 c-14 -26 -14 -30 1 -35 9 -4 18 -4 21 -1 3 3 0 5 -6 5 -7
0 -12 7 -12 16 0 14 8 16 50 11 53 -6 58 -4 36 19 -9 9 -17 10 -21 4 -3 -5
-13 -10 -21 -10 -8 0 -12 5 -9 10 3 6 -1 10 -9 10 -9 0 -22 -13 -30 -29z"/>
<path d="M4618 5738 c5 -5 16 -8 23 -6 8 3 3 7 -10 11 -17 4 -21 3 -13 -5z"/>
<path d="M5555 5700 l-30 -20 40 -1 c39 -1 39 -2 10 -9 l-30 -8 27 -1 c25 -1
52 -21 29 -21 -6 0 -11 -4 -11 -10 0 -5 6 -7 14 -4 8 3 39 1 70 -6 45 -9 64
-8 113 5 107 31 134 48 96 62 -10 4 -21 10 -24 15 -9 14 -141 10 -155 -4 -4
-5 -13 -3 -21 3 -8 7 -13 8 -13 1 0 -20 -31 -21 -50 -2 -25 25 -28 25 -65 0z"/>
<path d="M4565 5685 c39 -32 54 -32 19 0 -15 14 -32 25 -38 25 -6 -1 3 -12 19
-25z"/>
<path d="M5060 5700 c-6 -4 5 -7 25 -8 19 -1 35 0 35 2 0 8 -49 13 -60 6z"/>
<path d="M3441 5681 c-6 -11 -11 -26 -11 -35 0 -8 -8 -17 -17 -19 -10 -3 -4
-5 14 -6 17 0 33 -6 35 -13 3 -9 15 -6 40 9 25 14 40 18 52 11 9 -5 33 -8 54
-6 30 3 33 5 17 12 -11 4 -29 12 -40 16 -11 5 -40 15 -65 21 -25 7 -50 17 -57
21 -8 6 -15 2 -22 -11z"/>
<path d="M4619 5654 c-18 -22 -4 -27 26 -11 26 13 27 14 7 19 -12 4 -26 0 -33
-8z"/>
<path d="M4973 5648 c-2 -16 1 -18 10 -9 7 7 8 14 1 21 -6 6 -10 2 -11 -12z"/>
<path d="M3740 5620 c0 -5 5 -10 11 -10 5 0 7 5 4 10 -3 6 -8 10 -11 10 -2 0
-4 -4 -4 -10z"/>
<path d="M12740 5618 c0 -4 14 -8 30 -8 17 0 30 2 30 4 0 2 -13 6 -30 8 -16 3
-30 1 -30 -4z"/>
<path d="M600 5609 c0 -5 9 -9 20 -9 11 0 20 2 20 4 0 2 -9 6 -20 9 -11 3 -20
1 -20 -4z"/>
<path d="M3705 5610 c3 -5 11 -10 16 -10 6 0 7 5 4 10 -3 6 -11 10 -16 10 -6
0 -7 -4 -4 -10z"/>
<path d="M4620 5615 c0 -2 10 -10 23 -16 20 -11 21 -11 8 4 -13 16 -31 23 -31
12z"/>
<path d="M4940 5604 c0 -14 3 -14 15 -4 8 7 15 14 15 16 0 2 -7 4 -15 4 -8 0
-15 -7 -15 -16z"/>
<path d="M3527 5593 c-13 -12 -7 -23 12 -23 10 0 24 7 31 15 10 13 9 15 -12
15 -14 0 -28 -3 -31 -7z"/>
<path d="M4908 5583 c7 -3 16 -2 19 1 4 3 -2 6 -13 5 -11 0 -14 -3 -6 -6z"/>
<path d="M3640 5564 c0 -9 5 -14 12 -12 18 6 21 28 4 28 -9 0 -16 -7 -16 -16z"/>
<path d="M4698 5549 c18 -17 36 -28 40 -24 4 4 2 10 -5 12 -6 2 -21 13 -34 24
-36 31 -37 22 -1 -12z"/>
<path d="M6115 5570 c4 -6 11 -8 16 -5 14 9 11 15 -7 15 -8 0 -12 -5 -9 -10z"/>
<path d="M4901 5544 c-12 -15 -21 -31 -21 -36 0 -5 -4 -7 -9 -3 -5 3 -12 1
-16 -5 -3 -5 3 -10 14 -10 14 0 27 13 40 40 22 47 20 50 -8 14z"/>
<path d="M4145 5550 c3 -5 8 -10 11 -10 2 0 4 5 4 10 0 6 -5 10 -11 10 -5 0
-7 -4 -4 -10z"/>
<path d="M4780 5530 c-12 -8 -9 -10 12 -10 14 0 28 -6 31 -12 2 -7 8 -10 12
-6 8 7 -18 38 -32 38 -4 0 -15 -5 -23 -10z"/>
<path d="M4040 5509 c0 -5 5 -7 10 -4 6 3 10 8 10 11 0 2 -4 4 -10 4 -5 0 -10
-5 -10 -11z"/>
<path d="M6305 5511 c-3 -5 -1 -12 4 -15 5 -3 11 1 15 9 6 16 -9 21 -19 6z"/>
<path d="M690 5500 c0 -5 11 -10 25 -10 14 0 25 5 25 10 0 6 -11 10 -25 10
-14 0 -25 -4 -25 -10z"/>
<path d="M7120 5500 c20 -13 33 -13 25 0 -3 6 -14 10 -23 10 -15 0 -15 -2 -2
-10z"/>
<path d="M6250 5460 c0 -5 -13 -10 -28 -10 -16 0 -37 -9 -47 -20 -10 -11 -25
-20 -34 -20 -14 -1 -14 -2 1 -14 10 -7 15 -16 11 -19 -3 -4 -1 -7 5 -7 6 0 9
-9 7 -21 -4 -17 -2 -19 11 -8 20 16 30 3 13 -17 -13 -15 -11 -17 19 -12 21 3
32 0 32 -8 0 -7 5 -14 12 -16 19 -7 -2 -28 -28 -28 -13 0 -24 -4 -24 -10 0 -5
5 -10 10 -10 19 0 10 -18 -12 -25 -22 -8 -22 -8 5 -12 24 -4 40 -23 20 -23 -5
0 -19 -10 -33 -21 -17 -14 -19 -19 -7 -15 10 3 59 11 110 17 82 10 148 28 108
29 -11 0 -10 4 3 19 20 22 12 45 -13 38 -12 -3 -21 5 -30 24 -7 15 -21 31 -32
34 -10 4 -19 13 -19 21 0 8 -11 20 -25 26 l-25 11 20 22 c24 25 18 35 -22 35
-27 0 -28 1 -14 16 15 15 21 34 11 34 -3 0 -5 -4 -5 -10z"/>
<path d="M7146 5453 c-6 -14 -5 -15 5 -6 7 7 10 15 7 18 -3 3 -9 -2 -12 -12z"/>
<path d="M11905 5460 c-3 -5 1 -10 9 -10 8 0 18 5 21 10 3 6 -1 10 -9 10 -8 0
-18 -4 -21 -10z"/>
<path d="M1153 5426 c-36 -23 -40 -31 -19 -39 16 -6 60 14 57 27 -2 5 3 12 9
16 9 5 8 8 -2 12 -7 2 -27 -5 -45 -16z"/>
<path d="M6112 5420 c-7 -11 -10 -20 -7 -20 3 0 15 9 27 20 16 14 18 20 7 20
-8 0 -20 -9 -27 -20z"/>
<path d="M6982 5418 c-14 -14 -16 -28 -2 -28 5 0 14 9 20 20 12 22 1 27 -18 8z"/>
<path d="M6658 5393 c-10 -2 -18 -9 -18 -14 0 -6 8 -5 20 1 11 6 20 13 20 15
0 3 -1 4 -2 4 -2 -1 -11 -3 -20 -6z"/>
<path d="M3650 5360 c0 -5 6 -10 14 -10 8 0 18 5 21 10 3 6 -3 10 -14 10 -12
0 -21 -4 -21 -10z"/>
<path d="M6070 5310 c-8 -14 -17 -19 -29 -15 -13 4 -20 -1 -24 -15 -3 -13 0
-20 9 -20 18 0 18 -14 -1 -30 -35 -29 0 -46 52 -25 19 8 44 15 54 15 15 0 19
7 19 34 0 19 6 36 13 39 9 3 9 7 -2 20 -20 25 -78 22 -91 -3z"/>
<path d="M11985 5320 c3 -5 8 -10 11 -10 2 0 4 5 4 10 0 6 -5 10 -11 10 -5 0
-7 -4 -4 -10z"/>
<path d="M11186 5286 c3 -7 -2 -16 -10 -19 -17 -7 -22 -56 -8 -72 5 -6 5 -50
2 -100 -3 -49 -3 -94 2 -99 5 -6 8 -5 8 3 0 8 7 11 20 8 24 -6 25 1 4 32 -29
40 10 93 44 59 13 -13 17 3 4 18 -12 12 -43 100 -40 110 4 16 -13 74 -22 74
-5 0 -7 -6 -4 -14z"/>
<path d="M1850 5284 c0 -15 22 -43 46 -59 l27 -17 -17 23 c-9 13 -16 31 -16
41 0 11 -8 18 -20 18 -11 0 -20 -3 -20 -6z"/>
<path d="M685 5270 c-3 -5 1 -10 9 -10 8 0 18 5 21 10 3 6 -1 10 -9 10 -8 0
-18 -4 -21 -10z"/>
<path d="M639 5253 c-13 -15 -12 -15 9 -4 23 12 28 21 13 21 -5 0 -15 -7 -22
-17z"/>
<path d="M3585 5250 c3 -5 13 -10 21 -10 8 0 12 5 9 10 -3 6 -13 10 -21 10 -8
0 -12 -4 -9 -10z"/>
<path d="M12639 5219 c-10 -6 -4 -9 19 -9 17 0 32 2 32 4 0 9 -39 13 -51 5z"/>
<path d="M12538 5203 c12 -2 30 -2 40 0 9 3 -1 5 -23 4 -22 0 -30 -2 -17 -4z"/>
<path d="M4423 5165 c-15 -20 -37 -46 -48 -59 -41 -47 -33 -56 46 -56 66 0 71
-1 53 -15 -10 -8 -14 -15 -8 -15 5 0 19 7 30 15 24 18 38 19 31 1 -6 -16 30
-30 39 -15 9 15 -6 50 -19 42 -7 -4 -6 1 2 10 11 15 11 17 -2 17 -8 0 -14 8
-13 18 1 13 -6 16 -32 14 -20 -1 -31 2 -27 8 3 6 -4 10 -16 10 -20 0 -21 2 -7
18 26 30 30 42 15 42 -8 0 -28 -16 -44 -35z"/>
<path d="M11630 5155 c-7 -8 -8 -15 -2 -15 5 0 15 7 22 15 7 8 8 15 2 15 -5 0
-15 -7 -22 -15z"/>
<path d="M4186 5131 c14 -15 74 -32 74 -21 0 5 -10 12 -22 15 -59 17 -63 17
-52 6z"/>
<path d="M4182 5021 c5 -18 55 -33 64 -20 3 5 -5 9 -18 9 -13 0 -30 6 -37 13
-11 10 -13 9 -9 -2z"/>
<path d="M11435 4990 c-3 -6 1 -7 9 -4 18 7 21 14 7 14 -6 0 -13 -4 -16 -10z"/>
<path d="M11156 4930 c-4 -28 -11 -40 -23 -40 -21 0 -41 -29 -36 -51 3 -11 11
-15 25 -11 20 5 20 6 3 19 -17 12 -16 13 14 13 18 0 40 -4 50 -10 14 -7 23 -5
36 10 10 11 29 20 43 20 18 0 23 4 18 16 -3 9 -6 19 -6 23 0 5 -10 6 -23 4
-15 -3 -34 4 -54 21 -17 14 -33 26 -36 26 -2 0 -7 -18 -11 -40z"/>
<path d="M11354 4956 c-29 -22 -13 -26 21 -5 17 11 23 19 14 19 -8 0 -24 -6
-35 -14z"/>
<path d="M6865 4930 c3 -5 8 -10 11 -10 2 0 4 5 4 10 0 6 -5 10 -11 10 -5 0
-7 -4 -4 -10z"/>
<path d="M11299 4923 c-13 -16 -12 -17 4 -4 16 13 21 21 13 21 -2 0 -10 -8
-17 -17z"/>
<path d="M6661 4867 c-16 -20 -6 -56 10 -40 6 6 9 21 7 33 -3 21 -4 22 -17 7z"/>
<path d="M6060 4818 c0 -17 -6 -47 -12 -66 -10 -28 -10 -36 0 -39 6 -3 12 -16
12 -29 0 -19 5 -24 25 -24 25 0 27 3 29 62 1 15 5 30 9 34 4 4 7 18 7 30 0 13
5 26 11 30 18 11 -6 26 -45 30 -34 3 -36 2 -36 -28z"/>
<path d="M8135 4830 c3 -5 8 -10 11 -10 2 0 4 5 4 10 0 6 -5 10 -11 10 -5 0
-7 -4 -4 -10z"/>
<path d="M11135 4810 c3 -6 -1 -7 -9 -4 -16 6 -39 -33 -29 -49 10 -16 -18 -62
-50 -84 -35 -24 -52 -29 -42 -13 3 6 1 10 -4 10 -6 0 -11 -6 -11 -12 -1 -31
-35 -54 -85 -57 -33 -1 -57 -9 -71 -22 -11 -10 -23 -19 -27 -19 -3 0 -18 -12
-32 -26 -24 -24 -25 -29 -14 -58 18 -45 27 -53 43 -36 21 23 28 67 12 82 -12
12 -7 16 31 27 52 13 69 9 24 -7 -33 -12 -37 -19 -20 -42 8 -12 12 -12 16 -2
3 7 16 18 30 23 18 7 23 14 18 29 -5 15 -2 20 10 20 11 0 15 -5 12 -14 -3 -8
0 -20 8 -26 10 -8 17 -5 32 13 10 13 24 22 31 19 7 -2 20 0 30 4 9 4 20 6 25
6 4 -1 7 2 7 7 0 5 7 12 16 15 8 3 12 2 9 -4 -3 -6 -2 -10 3 -10 14 0 35 28
28 38 -5 9 12 63 32 99 7 12 12 28 12 35 0 20 -23 68 -33 68 -5 0 -5 -4 -2
-10z"/>
<path d="M6650 4804 c-12 -4 -15 -14 -12 -39 4 -36 9 -39 36 -29 10 4 16 18
16 40 0 34 -5 37 -40 28z"/>
<path d="M5488 4683 c7 -3 16 -2 19 1 4 3 -2 6 -13 5 -11 0 -14 -3 -6 -6z"/>
<path d="M7165 4590 c11 -5 36 -8 55 -8 32 0 33 1 10 8 -14 4 -38 8 -55 8 -25
1 -27 -1 -10 -8z"/>
<path d="M7485 4593 c-29 -7 -39 -19 -21 -26 8 -3 25 3 38 13 23 19 20 22 -17
13z"/>
<path d="M10640 4520 c-13 -8 -12 -10 3 -10 9 0 17 5 17 10 0 12 -1 12 -20 0z"/>
<path d="M8240 4270 c-9 -6 -10 -10 -3 -10 6 0 15 5 18 10 8 12 4 12 -15 0z"/>
<path d="M3690 4260 c0 -5 7 -7 15 -4 8 4 15 8 15 10 0 2 -7 4 -15 4 -8 0 -15
-4 -15 -10z"/>
<path d="M3736 4257 c3 -10 9 -15 12 -12 3 3 0 11 -7 18 -10 9 -11 8 -5 -6z"/>
<path d="M10687 4263 c-4 -3 -7 -11 -7 -17 0 -6 5 -5 12 2 6 6 9 14 7 17 -3 3
-9 2 -12 -2z"/>
<path d="M3766 4207 c3 -10 9 -15 12 -12 3 3 0 11 -7 18 -10 9 -11 8 -5 -6z"/>
<path d="M3707 4198 c-2 -8 2 -23 10 -33 13 -19 14 -18 7 10 -8 37 -10 39 -17
23z"/>
<path d="M10443 4176 c-15 -33 -12 -86 6 -86 7 0 41 91 41 111 0 23 -32 5 -47
-25z"/>
<path d="M3530 4123 c-20 -8 -54 -43 -41 -43 6 0 27 8 47 18 28 13 38 14 41 5
3 -7 18 -13 33 -13 16 0 32 -4 35 -10 3 -5 15 -10 26 -10 11 0 22 -7 25 -15 4
-8 15 -15 26 -15 14 0 18 -5 14 -17 -5 -16 1 -18 49 -15 30 2 55 7 55 11 0 4
-22 18 -50 31 -27 13 -57 31 -66 41 -9 10 -22 15 -29 12 -8 -2 -24 2 -37 11
-22 16 -96 21 -128 9z"/>
<path d="M1030 4050 c0 -4 9 -10 20 -13 11 -3 20 -2 20 3 0 4 -9 10 -20 13
-11 3 -20 2 -20 -3z"/>
<path d="M3860 4049 c0 -5 5 -7 10 -4 6 3 10 8 10 11 0 2 -4 4 -10 4 -5 0 -10
-5 -10 -11z"/>
<path d="M9500 4027 c0 -3 11 -18 25 -33 14 -15 25 -23 25 -17 0 5 -11 20 -25
33 -14 13 -25 21 -25 17z"/>
<path d="M1075 4010 c-3 -4 -2 -15 1 -23 7 -18 34 -11 34 8 0 16 -27 28 -35
15z"/>
<path d="M3887 3984 c16 -26 14 -27 -31 -24 -18 1 -26 -2 -22 -9 4 -6 27 -11
52 -11 28 0 44 -4 44 -12 1 -8 5 -7 13 4 9 11 26 16 55 15 24 -1 42 3 42 9 0
20 -74 51 -122 52 l-47 0 16 -24z"/>
<path d="M10052 3998 c-18 -18 -15 -45 5 -53 13 -4 25 2 40 22 13 15 23 31 23
36 0 12 -55 8 -68 -5z"/>
<path d="M3706 3951 c-7 -11 17 -21 52 -21 15 0 22 4 17 9 -15 13 -63 22 -69
12z"/>
<path d="M4080 3945 c0 -9 9 -15 25 -15 28 0 34 15 9 24 -25 10 -34 7 -34 -9z"/>
<path d="M10440 3917 c0 -30 -5 -47 -13 -49 -10 -2 -11 -11 -5 -35 6 -25 12
-31 26 -26 15 6 15 5 3 -10 -11 -14 -11 -17 0 -18 8 -1 18 -1 23 0 4 1 14 -3
21 -9 10 -8 15 -7 18 2 4 8 8 5 12 -9 9 -29 40 -42 32 -13 -3 11 -1 20 4 20 5
0 9 4 9 10 0 5 -7 7 -15 4 -8 -4 -21 -1 -29 5 -7 6 -21 9 -30 5 -9 -3 -16 -2
-16 4 0 6 6 13 13 15 10 4 10 6 0 6 -18 1 -16 36 2 51 11 9 14 22 9 44 -8 38
-4 33 -37 41 -26 7 -27 6 -27 -38z"/>
<path d="M4265 3870 c-3 -5 -1 -10 4 -10 6 0 11 5 11 10 0 6 -2 10 -4 10 -3 0
-8 -4 -11 -10z"/>
<path d="M9555 3860 c3 -5 14 -10 23 -10 15 0 15 2 2 10 -20 13 -33 13 -25 0z"/>
<path d="M3517 3819 c-9 -6 -22 -7 -27 -4 -6 3 -13 -1 -16 -9 -3 -9 -12 -16
-19 -16 -6 0 -25 -12 -40 -26 l-28 -25 31 -32 c17 -18 32 -43 34 -57 2 -16 9
-25 21 -25 10 0 32 -16 48 -35 22 -27 29 -31 30 -17 1 9 2 23 3 30 2 6 -6 27
-17 45 -17 29 -18 39 -7 103 7 39 10 72 8 74 -2 2 -11 -1 -21 -6z"/>
<path d="M9502 3748 c-1 -14 -5 -35 -8 -45 -5 -14 -4 -15 5 -7 7 7 11 26 8 45
-3 28 -4 29 -5 7z"/>
<path d="M10440 3762 c0 -5 6 -16 13 -27 10 -13 16 -15 21 -6 4 6 2 18 -4 26
-13 16 -30 20 -30 7z"/>
<path d="M8170 3730 c0 -5 7 -10 15 -10 8 0 15 5 15 10 0 6 -7 10 -15 10 -8 0
-15 -4 -15 -10z"/>
<path d="M3904 3705 c-25 -21 -55 -31 -67 -22 -8 5 -37 -26 -37 -40 0 -22 -44
-70 -59 -65 -9 3 -11 0 -7 -7 4 -7 2 -18 -4 -26 -6 -8 -8 -20 -4 -26 4 -7 8
-40 10 -74 3 -56 0 -65 -27 -94 -16 -18 -29 -34 -29 -36 0 -11 80 -56 89 -51
5 4 16 -3 25 -15 13 -20 13 -25 0 -51 -9 -16 -31 -36 -50 -44 -24 -10 -40 -26
-50 -49 -13 -31 -16 -34 -34 -23 -11 7 -20 22 -20 33 -1 19 -2 19 -20 -3 -24
-29 -17 -78 17 -109 23 -22 133 -243 133 -268 0 -24 42 -65 100 -99 99 -58
105 -68 105 -166 0 -115 -12 -240 -26 -276 -6 -16 -13 -69 -15 -119 -2 -70 -9
-105 -29 -155 -15 -36 -32 -68 -37 -71 -6 -4 -6 -19 0 -43 8 -28 7 -45 -4 -71
-7 -19 -11 -40 -8 -48 3 -8 1 -18 -5 -22 -6 -3 -11 -18 -11 -31 0 -33 24 -27
28 7 5 31 22 50 22 23 0 -38 -13 -94 -21 -94 -5 0 -9 8 -9 17 0 15 -2 15 -14
-2 -8 -11 -12 -24 -10 -30 3 -6 -7 -24 -21 -39 -30 -32 -31 -36 -6 -29 31 8
35 -16 7 -42 -21 -20 -24 -29 -19 -62 3 -21 10 -41 16 -44 5 -4 7 -11 4 -16
-3 -5 -2 -15 4 -23 7 -13 9 -12 9 3 0 9 4 17 10 17 5 0 7 -7 3 -15 -3 -9 3
-22 13 -31 18 -14 18 -15 -6 -8 -25 7 -25 6 4 -21 16 -15 40 -28 52 -29 12 0
20 -4 18 -8 -4 -6 25 -19 51 -23 6 -1 12 -3 15 -4 19 -9 61 -10 55 -2 -3 6 0
9 7 6 7 -3 33 -1 58 3 l45 8 -33 8 c-17 4 -45 21 -61 37 -16 16 -34 29 -40 29
-6 0 -11 5 -11 11 0 6 7 9 15 5 19 -7 19 -1 0 28 -15 23 -15 25 15 46 16 12
30 28 30 35 0 8 14 21 30 30 34 18 42 55 11 55 -24 0 -43 23 -36 42 3 8 20 21
38 29 20 9 33 22 35 37 2 13 16 29 33 38 32 16 31 34 -2 34 -10 0 -19 4 -19 9
0 5 -3 16 -6 25 -5 14 1 15 40 10 49 -7 57 -1 60 51 1 22 6 25 36 25 58 0 105
18 128 50 24 31 28 50 12 50 -5 0 -10 11 -10 24 0 16 -7 27 -20 31 -11 3 -20
10 -20 15 0 5 15 4 33 -2 87 -27 109 -21 153 44 16 24 39 51 52 61 12 11 32
38 44 60 11 23 28 47 36 53 8 6 16 28 17 50 1 21 3 46 4 55 2 23 49 68 80 76
14 3 32 12 39 20 12 11 46 17 90 16 6 -1 12 4 12 10 0 5 6 15 13 21 35 30 87
197 87 281 0 46 4 64 14 68 8 3 23 21 32 39 9 18 32 50 50 70 38 42 50 91 37
145 -7 31 -14 38 -41 44 -18 4 -52 25 -77 48 -36 33 -52 41 -78 40 -17 -1 -43
2 -57 6 -14 5 -33 8 -43 6 -9 -1 -20 5 -23 14 -8 19 -75 55 -103 55 -11 0 -25
-8 -31 -17 -9 -15 -10 -13 -5 10 4 22 2 27 -14 27 -24 0 -43 23 -35 44 4 10
-1 25 -11 36 -10 11 -20 34 -24 51 -10 50 -87 99 -155 99 -52 1 -80 15 -102
55 -6 11 -25 27 -42 35 -17 8 -32 22 -32 30 0 9 -15 21 -32 28 -27 10 -30 14
-18 22 11 7 5 10 -23 10 -23 0 -36 4 -32 10 3 6 2 10 -3 10 -5 0 -12 -9 -15
-20 -6 -21 -41 -28 -53 -9 -4 6 -20 8 -40 5 -27 -6 -35 -3 -44 14 -6 11 -17
20 -25 20 -8 0 -19 8 -24 18 -9 15 -10 15 -11 -4 0 -14 -8 -24 -22 -27 -31 -9
-42 2 -23 23 26 28 1 32 -31 5z m42 -102 c-12 -12 -29 15 -21 34 7 17 8 16 18
-5 5 -12 7 -25 3 -29z m69 -944 c11 -17 -1 -21 -15 -4 -8 9 -8 15 -2 15 6 0
14 -5 17 -11z m611 -585 c-10 -14 -20 -23 -23 -21 -2 3 3 17 13 31 9 15 19 24
22 22 2 -3 -3 -17 -12 -32z m-446 -434 c0 -5 -5 -10 -11 -10 -5 0 -7 5 -4 10
3 6 8 10 11 10 2 0 4 -4 4 -10z m-240 -380 c0 -5 -5 -10 -11 -10 -5 0 -7 5 -4
10 3 6 8 10 11 10 2 0 4 -4 4 -10z m35 0 c-3 -5 1 -10 11 -10 13 0 14 -3 5
-13 -6 -8 -10 -16 -8 -18 1 -2 -4 2 -10 10 -16 18 -17 41 -2 41 5 0 7 -4 4
-10z"/>
<path d="M10498 3723 c7 -3 16 -2 19 1 4 3 -2 6 -13 5 -11 0 -14 -3 -6 -6z"/>
<path d="M10530 3722 c0 -5 7 -13 16 -16 10 -4 14 -1 12 6 -5 15 -28 23 -28
10z"/>
<path d="M10570 3723 c0 -5 6 -15 13 -22 10 -11 9 -12 -2 -6 -11 6 -12 2 -7
-20 5 -20 2 -31 -11 -41 -12 -9 -14 -13 -5 -14 16 0 42 24 42 39 0 6 4 11 9
11 16 0 -5 55 -22 58 -9 2 -17 0 -17 -5z"/>
<path d="M9685 3700 c-3 -5 -2 -10 4 -10 5 0 13 5 16 10 3 6 2 10 -4 10 -5 0
-13 -4 -16 -10z"/>
<path d="M10490 3680 c0 -21 5 -30 16 -30 13 0 14 -3 5 -14 -9 -10 -8 -16 4
-26 9 -7 16 -11 18 -9 21 37 27 52 26 66 0 15 -2 15 -8 -2 -8 -20 -8 -20 -14
0 -4 11 -16 26 -27 33 -18 11 -20 10 -20 -18z"/>
<path d="M9725 3689 c-4 -6 -5 -12 -2 -15 2 -3 7 2 10 11 7 17 1 20 -8 4z"/>
<path d="M10400 3670 c0 -8 -17 -31 -37 -52 -20 -21 -35 -40 -32 -42 3 -3 24
14 46 37 31 32 39 47 32 58 -8 12 -9 12 -9 -1z"/>
<path d="M4275 3657 c-4 -10 -5 -21 -1 -24 10 -10 18 4 13 24 -4 17 -4 17 -12
0z"/>
<path d="M9065 3578 c-8 -66 0 -98 24 -98 48 0 52 69 7 125 l-24 30 -7 -57z"/>
<path d="M10590 3594 c-14 -13 -31 -22 -38 -19 -23 9 -62 -25 -61 -54 0 -26 0
-26 10 -3 5 13 13 21 18 17 5 -3 12 -1 16 5 10 16 25 1 25 -26 0 -17 8 -27 26
-34 35 -14 37 -13 30 15 -4 14 -2 25 4 25 5 0 10 -6 10 -12 0 -9 4 -8 10 2 11
18 3 80 -14 96 -8 9 -17 6 -36 -12z"/>
<path d="M6530 3470 c0 -5 5 -10 11 -10 5 0 7 5 4 10 -3 6 -8 10 -11 10 -2 0
-4 -4 -4 -10z"/>
<path d="M9586 3461 c-4 -5 11 -27 31 -49 66 -70 94 -106 99 -129 4 -13 10
-23 14 -23 4 0 22 -28 38 -63 39 -81 123 -166 158 -159 21 4 24 9 24 53 0 37
4 49 15 49 8 0 15 5 15 10 0 6 -4 10 -9 10 -5 0 -11 10 -15 22 -4 18 -8 20
-18 10 -10 -10 -10 -15 2 -22 8 -5 12 -12 8 -15 -6 -6 -18 5 -64 58 -8 10 -13
26 -10 34 7 17 -54 78 -87 89 -10 3 -42 30 -72 60 -30 30 -62 54 -73 54 -12 0
-24 5 -27 10 -8 12 -22 13 -29 1z"/>
<path d="M10250 3430 c0 -5 5 -10 11 -10 5 0 7 5 4 10 -3 6 -8 10 -11 10 -2 0
-4 -4 -4 -10z"/>
<path d="M6588 3423 c7 -3 16 -2 19 1 4 3 -2 6 -13 5 -11 0 -14 -3 -6 -6z"/>
<path d="M10280 3408 c0 -6 -10 -32 -21 -56 -21 -41 -24 -44 -55 -39 -22 4
-37 1 -45 -9 -17 -21 -56 -17 -74 9 -13 19 -17 20 -26 7 -13 -20 -2 -92 16
-106 8 -6 15 -25 15 -43 0 -28 3 -31 30 -31 17 0 30 -3 30 -7 0 -5 18 -7 40
-7 27 1 43 -3 49 -13 6 -12 12 -13 29 -4 15 8 21 8 25 -2 2 -6 7 12 11 41 5
35 14 57 28 66 11 8 17 19 14 25 -11 17 12 51 29 45 17 -7 21 11 5 21 -21 13
-40 76 -30 96 10 17 7 19 -30 19 -24 0 -40 -5 -40 -12z"/>
<path d="M9600 3356 c0 -2 7 -7 16 -10 8 -3 12 -2 9 4 -6 10 -25 14 -25 6z"/>
<path d="M10705 3340 c-3 -5 -1 -10 4 -10 6 0 11 5 11 10 0 6 -2 10 -4 10 -3
0 -8 -4 -11 -10z"/>
<path d="M10580 3305 c-14 -16 -77 -20 -99 -6 -24 16 -50 -11 -67 -69 -8 -30
-20 -63 -25 -72 -13 -26 -11 -38 7 -38 14 0 16 -7 11 -40 -4 -35 -2 -40 14
-40 16 0 19 8 19 55 0 30 5 55 10 55 6 0 10 -7 10 -15 0 -13 6 -28 27 -64 2
-2 9 2 18 9 13 11 14 10 9 -4 -3 -9 -11 -16 -18 -16 -12 0 14 -20 27 -20 4 0
7 14 7 30 0 17 -4 30 -10 30 -5 0 -10 8 -10 18 0 10 -7 27 -15 38 -13 19 -12
23 8 41 12 11 29 23 37 27 8 3 -3 4 -24 1 -22 -2 -43 -10 -47 -16 -10 -17 -42
15 -37 39 3 14 15 17 69 18 71 0 83 5 99 35 13 22 -2 26 -20 4z"/>
<path d="M9660 3295 c7 -9 15 -13 17 -11 7 7 -7 26 -19 26 -6 0 -6 -6 2 -15z"/>
<path d="M9888 3293 c7 -3 16 -2 19 1 4 3 -2 6 -13 5 -11 0 -14 -3 -6 -6z"/>
<path d="M9896 3245 c-3 -8 -1 -15 4 -15 13 0 22 18 11 24 -5 3 -11 -1 -15 -9z"/>
<path d="M10675 3230 c3 -5 11 -10 16 -10 6 0 7 5 4 10 -3 6 -11 10 -16 10 -6
0 -7 -4 -4 -10z"/>
<path d="M9702 3208 c2 -6 10 -14 16 -16 7 -2 10 2 6 12 -7 18 -28 22 -22 4z"/>
<path d="M10790 3210 c0 -5 7 -10 15 -10 9 0 18 -7 21 -15 4 -9 20 -15 43 -16
l36 -1 -39 -12 c-29 -9 -35 -14 -23 -19 9 -3 17 -13 17 -22 0 -8 5 -15 10 -15
6 0 10 4 10 10 0 5 15 1 33 -10 17 -11 38 -20 45 -20 25 0 80 -31 87 -48 15
-37 15 -60 0 -66 -8 -3 -15 -12 -15 -20 0 -14 20 -12 52 5 3 2 18 -7 32 -20
l26 -24 0 124 0 124 -52 20 c-29 11 -56 21 -59 23 -3 1 -22 -13 -42 -33 -20
-19 -39 -35 -43 -35 -14 0 -33 36 -34 63 0 26 -1 27 -60 27 -33 0 -60 -4 -60
-10z"/>
<path d="M10525 3200 c3 -5 8 -10 11 -10 2 0 4 5 4 10 0 6 -5 10 -11 10 -5 0
-7 -4 -4 -10z"/>
<path d="M10570 3186 c0 -2 14 -6 30 -8 17 -3 30 -1 30 4 0 4 -13 8 -30 8 -16
0 -30 -2 -30 -4z"/>
<path d="M10765 3180 c3 -5 8 -10 11 -10 2 0 4 5 4 10 0 6 -5 10 -11 10 -5 0
-7 -4 -4 -10z"/>
<path d="M10968 3183 c7 -3 16 -2 19 1 4 3 -2 6 -13 5 -11 0 -14 -3 -6 -6z"/>
<path d="M3647 3163 c-4 -3 -7 -11 -7 -17 0 -6 5 -5 12 2 6 6 9 14 7 17 -3 3
-9 2 -12 -2z"/>
<path d="M9740 3156 c0 -2 8 -10 18 -17 15 -13 16 -12 3 4 -13 16 -21 21 -21
13z"/>
<path d="M10007 3154 c-8 -8 1 -24 14 -24 5 0 9 7 9 15 0 15 -12 20 -23 9z"/>
<path d="M10703 3143 c-15 -5 -18 -33 -4 -33 6 0 12 4 15 9 6 9 48 7 65 -4 6
-3 11 -2 11 4 0 22 -55 38 -87 24z"/>
<path d="M11471 3147 c2 -1 13 -9 24 -17 19 -14 19 -14 6 3 -7 9 -18 17 -24
17 -6 0 -8 -1 -6 -3z"/>
<path d="M10632 3128 c3 -7 13 -15 22 -16 12 -3 17 1 14 10 -3 7 -13 15 -22
16 -12 3 -17 -1 -14 -10z"/>
<path d="M10906 3024 c-11 -27 -7 -37 9 -24 16 14 20 40 6 40 -5 0 -12 -7 -15
-16z"/>
<path d="M9947 3023 c-13 -12 -7 -33 8 -33 8 0 15 -4 15 -9 0 -6 21 -13 48
-16 26 -4 61 -11 77 -16 17 -5 51 -10 76 -12 25 -2 51 -7 58 -11 6 -4 11 -2
11 5 0 8 3 9 13 0 8 -6 17 -8 20 -4 15 14 5 22 -38 29 -47 7 -72 24 -36 24 12
0 21 5 21 11 0 7 -10 9 -24 5 -14 -3 -36 -2 -51 4 -18 7 -31 6 -43 -1 -14 -9
-28 -7 -64 10 -48 21 -79 26 -91 14z"/>
<path d="M10810 2975 c-7 -9 -11 -18 -8 -20 3 -3 11 1 18 10 7 9 11 18 8 20
-3 3 -11 -1 -18 -10z"/>
<path d="M10625 2960 c-3 -5 1 -10 9 -10 9 0 16 5 16 10 0 6 -4 10 -9 10 -6 0
-13 -4 -16 -10z"/>
<path d="M10335 2940 c-3 -5 -12 -7 -19 -4 -8 3 -17 1 -20 -4 -8 -14 36 -23
73 -16 36 8 40 19 9 28 -31 8 -36 8 -43 -4z"/>
<path d="M10513 2937 c-3 -5 -20 -6 -38 -3 -18 4 -41 3 -51 -1 -30 -12 33 -21
76 -11 19 4 50 8 68 8 17 0 32 4 32 9 0 12 -80 9 -87 -2z"/>
<path d="M11215 2939 c-4 -6 -5 -12 -2 -15 2 -3 7 2 10 11 7 17 1 20 -8 4z"/>
<path d="M10622 2933 c-24 -5 -107 -82 -98 -91 3 -2 12 3 21 12 9 9 22 16 30
16 7 0 15 7 18 15 4 8 22 21 42 29 52 22 47 30 -13 19z"/>
<path d="M10390 2895 c0 -2 14 -11 30 -20 25 -13 30 -13 30 -1 0 7 -7 17 -16
20 -19 7 -44 8 -44 1z"/>
<path d="M10838 2823 c7 -3 16 -2 19 1 4 3 -2 6 -13 5 -11 0 -14 -3 -6 -6z"/>
<path d="M8017 2793 c-4 -3 -7 -15 -7 -25 0 -10 -7 -21 -15 -24 -8 -4 -15 -13
-15 -21 0 -21 -47 -60 -87 -73 -37 -13 -46 -40 -37 -110 5 -40 3 -55 -16 -85
-20 -32 -21 -41 -12 -73 6 -20 14 -47 17 -59 3 -12 15 -25 26 -28 23 -7 76 2
84 15 16 26 94 317 89 332 -4 14 -1 16 11 12 15 -6 16 -1 10 42 -7 42 -29 104
-39 104 -1 0 -6 -3 -9 -7z"/>
<path d="M12000 2681 c0 -6 5 -13 10 -16 6 -3 10 1 10 9 0 9 -4 16 -10 16 -5
0 -10 -4 -10 -9z"/>
<path d="M12029 2637 c7 -7 14 -8 21 -1 6 6 2 10 -12 11 -16 2 -18 -1 -9 -10z"/>
<path d="M8305 2490 c-3 -5 -1 -10 4 -10 6 0 11 5 11 10 0 6 -2 10 -4 10 -3 0
-8 -4 -11 -10z"/>
<path d="M11920 2481 c0 -11 70 -71 84 -71 12 0 -42 58 -66 71 -12 6 -18 6
-18 0z"/>
<path d="M10203 2259 c-2 -23 3 -25 10 -4 4 8 3 16 -1 19 -4 3 -9 -4 -9 -15z"/>
<path d="M12217 1931 c3 -9 14 -25 24 -36 39 -44 44 -96 11 -120 -11 -9 -9
-13 13 -23 22 -10 26 -17 21 -37 -3 -13 -1 -27 5 -31 15 -9 70 56 64 74 -2 7
4 12 14 12 19 0 31 18 31 47 0 11 -7 13 -27 9 -32 -7 -46 1 -57 29 -6 16 -9
17 -16 5 -7 -11 -11 -8 -19 13 -6 16 -11 32 -11 37 0 5 -13 15 -29 23 -27 13
-29 13 -24 -2z"/>
<path d="M11065 1910 c-3 -5 -1 -10 4 -10 6 0 11 5 11 10 0 6 -2 10 -4 10 -3
0 -8 -4 -11 -10z"/>
<path d="M12171 1675 c-20 -28 -51 -55 -81 -70 -42 -21 -90 -66 -90 -84 0 -4
20 -13 45 -20 55 -16 82 -3 108 52 17 36 41 52 60 40 6 -4 8 0 5 9 -4 8 4 28
18 44 30 37 32 68 4 59 -11 -4 -20 -2 -20 4 0 22 -18 10 -49 -34z"/>
<path d="M12035 1480 c-3 -5 1 -10 10 -10 9 0 13 5 10 10 -3 6 -8 10 -10 10
-2 0 -7 -4 -10 -10z"/>
<path d="M8690 1399 c0 -16 5 -20 27 -17 14 2 29 9 31 17 3 10 0 12 -11 8 -9
-3 -19 -2 -22 3 -11 17 -25 11 -25 -11z"/>
<path d="M4303 1305 c-11 -12 -6 -13 32 -11 46 2 90 26 49 26 -11 0 -26 -6
-33 -12 -11 -10 -13 -10 -7 0 10 17 -26 15 -41 -3z"/>
<path d="M5105 1206 c17 -7 32 -11 35 -9 8 7 -24 23 -45 22 -15 0 -13 -3 10
-13z"/>
<path d="M4360 940 c-12 -8 -12 -10 5 -10 11 0 27 5 35 10 12 8 12 10 -5 10
-11 0 -27 -5 -35 -10z"/>
<path d="M4294 921 c3 -5 15 -7 26 -4 28 7 25 13 -6 13 -14 0 -23 -4 -20 -9z"/>
<path d="M4240 910 c0 -5 5 -10 11 -10 5 0 7 5 4 10 -3 6 -8 10 -11 10 -2 0
-4 -4 -4 -10z"/>
<path d="M4367 892 c-21 -7 -45 -11 -53 -8 -7 3 -16 1 -19 -4 -3 -6 -15 -15
-25 -20 -16 -8 -18 -8 -14 5 4 8 1 15 -5 15 -6 0 -11 -5 -11 -11 0 -6 -7 -9
-15 -5 -22 8 -45 -3 -39 -19 3 -7 -4 -18 -15 -24 -25 -14 -44 -14 -36 -1 3 6
1 10 -5 10 -7 0 -10 -7 -6 -15 7 -18 -24 -36 -50 -29 -12 3 -30 -3 -45 -15
-19 -16 -21 -20 -7 -21 9 0 25 8 34 18 17 16 18 16 11 0 -3 -10 -2 -18 3 -18
6 0 10 -12 10 -26 0 -18 -4 -24 -13 -21 -8 3 -19 2 -26 -2 -9 -6 -8 -13 5 -26
16 -15 44 -61 44 -70 0 -6 -104 -24 -162 -28 -33 -2 -58 0 -58 6 0 5 -8 3 -17
-4 -9 -8 -14 -9 -10 -2 9 14 -23 26 -46 17 -9 -3 -13 -12 -10 -21 4 -10 2 -14
-4 -10 -6 4 -36 9 -68 12 -32 3 -62 8 -66 11 -5 3 -21 -2 -36 -9 -27 -14 -116
-14 -153 0 -14 5 -62 12 -120 16 -14 1 -36 -2 -49 -7 -16 -6 -21 -5 -17 3 4 6
0 11 -9 11 -9 0 -13 -4 -10 -10 4 -6 -33 -10 -104 -10 -67 0 -111 4 -111 10 0
6 17 10 38 10 32 1 35 2 20 13 -9 7 -36 12 -60 11 -24 -1 -70 -3 -103 -4 -57
-3 -58 -3 -20 -10 31 -5 36 -8 22 -14 -9 -5 -33 -5 -52 -2 -22 4 -35 3 -35 -4
0 -13 60 -50 83 -50 9 0 17 -3 17 -7 0 -5 -74 -8 -164 -8 -129 -1 -163 2 -159
12 4 9 -5 13 -26 13 -17 0 -31 -4 -31 -10 0 -15 -21 -12 -42 7 -15 14 -26 15
-62 6 -35 -8 -43 -7 -39 3 3 9 -2 11 -16 7 -12 -3 -21 -8 -21 -12 0 -3 -33 -6
-73 -7 -40 0 -51 1 -24 3 78 7 53 23 -35 23 -75 0 -80 -1 -62 -15 17 -14 9
-15 -86 -14 -58 1 -122 -1 -142 -6 -28 -5 -38 -4 -38 5 0 9 -10 10 -37 4 -21
-4 -59 -6 -84 -5 -26 1 -85 -3 -130 -9 -46 -7 -118 -14 -159 -16 -41 -2 -86
-7 -100 -11 -14 -3 -38 -7 -55 -8 -59 -3 -66 -5 -60 -15 4 -6 -5 -7 -23 -4
-16 3 -32 1 -36 -4 -4 -7 -48 -9 -120 -6 -95 4 -115 2 -119 -11 -5 -10 2 -16
21 -20 15 -3 43 -10 62 -15 19 -5 99 -15 178 -21 79 -7 145 -16 148 -20 7 -13
-142 -22 -239 -15 -55 5 -102 3 -117 -3 -23 -9 -21 -10 17 -10 23 -1 45 -5 48
-11 3 -5 23 -10 43 -11 20 0 31 -3 25 -6 -7 -2 -13 -10 -13 -17 0 -8 27 -17
78 -24 61 -8 7 -10 -258 -6 -184 3 -348 6 -365 7 -29 2 -30 0 -33 -40 l-3 -43
6095 0 6096 0 0 45 0 45 -167 0 c-401 0 -772 39 -820 86 -27 26 -2 33 189 49
49 4 50 4 43 15 -4 6 9 11 32 11 33 1 31 3 -17 9 -58 9 -74 5 -50 -10 27 -17
-49 -11 -86 6 -55 26 -44 74 17 74 10 0 19 4 19 8 0 14 65 32 115 32 27 0 45
3 42 7 -4 3 4 16 18 29 15 14 21 25 14 29 -6 4 -13 5 -16 2 -2 -3 -26 1 -52 9
-27 8 -88 16 -137 19 -49 3 -121 14 -159 25 -39 10 -94 20 -123 21 -29 2 -52
6 -52 10 0 3 -9 9 -20 12 -11 3 -20 0 -20 -5 0 -10 -21 -9 -142 6 -10 1 -21 5
-24 9 -4 4 -20 7 -36 7 -16 0 -39 6 -51 12 -12 7 -31 13 -42 14 -81 5 -293 26
-306 30 -9 2 -19 14 -22 24 -3 11 -13 20 -22 20 -12 0 -16 -6 -12 -20 5 -19 0
-20 -62 -20 -44 0 -74 -5 -87 -15 -21 -16 -75 -20 -89 -6 -6 6 -69 6 -164 0
-85 -5 -162 -7 -170 -3 -59 26 -188 34 -224 15 -21 -11 -42 -12 -115 -2 -109
14 -229 14 -237 1 -9 -15 -378 -13 -393 2 -9 9 -15 8 -25 -6 -10 -14 -33 -19
-115 -23 -57 -3 -105 -10 -108 -14 -3 -5 -18 -9 -35 -9 -16 0 -51 -11 -77 -24
-26 -13 -72 -28 -102 -31 -58 -8 -114 -33 -133 -59 -15 -20 -117 -35 -117 -17
0 6 11 16 24 21 32 12 47 35 18 28 -12 -4 -25 -2 -28 3 -3 5 4 9 15 9 24 0 59
47 45 60 -5 4 -93 13 -196 19 -180 11 -217 16 -228 32 -3 4 -32 13 -65 19 -67
14 -175 -1 -175 -24 0 -8 -12 -11 -36 -8 -25 3 -35 1 -30 -6 4 -7 -8 -11 -36
-10 -24 1 -68 -4 -98 -10 -30 -7 -75 -16 -99 -21 -25 -5 -50 -16 -56 -24 -10
-14 -65 -21 -65 -8 0 3 -19 7 -41 8 -23 0 -46 6 -52 12 -16 16 -41 14 -79 -8
-52 -29 -265 -46 -439 -35 -77 5 -143 6 -145 3 -2 -4 -25 -5 -51 -3 -29 2 -50
-1 -54 -8 -6 -10 -20 -10 -61 -1 -29 6 -71 8 -93 5 -22 -3 -68 -6 -103 -6 -34
-1 -62 -4 -62 -7 0 -3 -15 -6 -33 -7 -19 -1 -45 -5 -58 -10 -27 -11 -91 -4
-84 8 6 10 -24 22 -37 14 -6 -4 -5 -10 3 -15 9 -6 -6 -9 -39 -9 -30 0 -51 4
-47 9 12 20 -17 21 -44 2 -34 -24 -44 -25 -70 -9 -15 9 -26 9 -44 1 -14 -7
-36 -9 -48 -7 -22 5 -23 4 -6 -9 16 -14 16 -15 -5 -21 -13 -3 -35 -6 -50 -6
-16 0 -28 -4 -28 -10 0 -5 -11 -10 -24 -10 -31 0 -56 -10 -56 -21 0 -5 8 -9
18 -10 10 0 7 -4 -9 -8 -14 -5 -34 -13 -45 -19 -11 -6 -89 -15 -174 -22 -225
-16 -450 -56 -450 -80 0 -13 123 -23 176 -15 32 4 44 3 39 -4 -4 -7 6 -11 26
-11 18 0 30 -2 28 -4 -6 -6 -310 -23 -624 -36 -132 -6 -271 -15 -308 -20 -44
-7 -89 -7 -130 -1 -34 6 -154 17 -267 26 -280 21 -300 24 -293 41 4 11 -7 14
-48 15 -30 1 -42 4 -26 6 15 2 27 9 27 14 0 5 34 9 75 9 43 0 75 4 75 10 0 6
-18 10 -41 10 -57 0 -133 20 -121 32 7 7 22 6 44 0 45 -15 193 -16 303 -3 112
14 122 16 202 54 31 14 68 47 53 47 -15 0 -35 43 -21 48 14 5 15 32 1 32 -5 0
-10 -5 -10 -12 0 -6 -9 -3 -20 7 -14 13 -17 21 -9 26 15 9 -5 21 -24 13 -20
-7 -33 16 -16 28 14 10 4 8 -47 -7 -18 -5 -21 -3 -20 16 0 12 10 27 21 33 11
6 23 15 27 20 4 6 13 4 22 -3 12 -10 16 -11 16 -1 0 7 6 10 13 7 6 -2 21 -1
32 4 17 6 15 8 -10 8 -27 1 -28 2 -13 17 24 24 116 46 139 33 11 -5 20 -7 20
-4 1 3 2 8 3 13 4 20 18 29 41 24 15 -2 25 0 25 7 0 15 -70 11 -123 -7z
m-2977 -422 c11 -8 7 -9 -15 -4 -37 8 -45 14 -19 14 10 0 26 -5 34 -10z m-95
-10 c3 -6 -4 -10 -17 -10 -18 0 -20 2 -8 10 19 12 18 12 25 0z m2378 -17 c-7
-2 -21 -2 -30 0 -10 3 -4 5 12 5 17 0 24 -2 18 -5z m-58 -22 c17 -3 25 -9 20
-13 -11 -6 -105 10 -105 18 0 6 49 3 85 -5z"/>
<path d="M9659 867 c15 -19 41 -23 41 -7 0 6 -4 10 -9 10 -5 0 -18 3 -28 7
-16 6 -16 5 -4 -10z"/>
<path d="M9758 823 c6 -2 18 -2 25 0 6 3 1 5 -13 5 -14 0 -19 -2 -12 -5z"/>
<path d="M3910 705 c-25 -14 -25 -14 -2 -15 24 0 30 -15 10 -23 -8 -3 -6 -6 5
-6 9 -1 17 -6 17 -12 0 -6 -7 -8 -17 -5 -22 9 -124 -14 -116 -27 3 -5 31 -7
62 -4 31 3 46 3 33 0 -12 -2 -20 -9 -17 -14 8 -12 53 -11 115 2 42 9 50 14 50
33 0 30 -59 86 -90 86 -14 -1 -36 -7 -50 -15z"/>
<path d="M3790 680 c0 -5 11 -10 25 -10 14 0 25 5 25 10 0 6 -11 10 -25 10
-14 0 -25 -4 -25 -10z"/>
<path d="M3775 650 c-17 -7 -15 -9 10 -8 17 0 44 4 60 8 29 7 28 8 -10 8 -22
0 -49 -3 -60 -8z"/>
<path d="M3693 603 c9 -2 23 -2 30 0 6 3 -1 5 -18 5 -16 0 -22 -2 -12 -5z"/>
<path d="M2045 572 c6 -6 37 -14 70 -18 43 -5 57 -3 50 4 -6 6 -37 14 -70 18
-43 5 -57 3 -50 -4z"/>
<path d="M2620 571 c0 -16 80 -34 99 -22 9 6 4 12 -20 20 -39 13 -79 14 -79 2z"/>
<path d="M5645 540 c28 -12 37 -12 30 0 -3 6 -16 10 -28 9 -21 0 -21 -1 -2 -9z"/>
<path d="M4699 436 c-26 -7 -54 -19 -63 -28 -8 -9 -42 -19 -76 -23 -33 -4 -60
-11 -60 -17 0 -11 333 0 367 13 19 7 20 11 10 33 -17 36 -91 46 -178 22z"/>
<path d="M860 428 c-24 -10 -24 -10 -5 -18 24 -10 79 -12 88 -3 4 3 -5 12 -19
20 -30 15 -31 15 -64 1z"/>
<path d="M3985 425 c-5 -2 -23 -6 -40 -10 -23 -5 -26 -8 -14 -15 9 -5 42 -2
85 10 68 18 69 18 24 18 -25 0 -49 -1 -55 -3z"/>
<path d="M4973 423 c20 -2 54 -2 75 0 20 2 3 4 -38 4 -41 0 -58 -2 -37 -4z"/>
<path d="M4260 390 c-9 -6 -46 -8 -92 -4 -55 5 -78 3 -78 -5 0 -7 33 -11 104
-11 107 0 140 5 130 21 -7 12 -45 11 -64 -1z"/>
</g>
</svg>
